<svg width="32" height="32" viewBox="0 0 32 32" fill="none" xmlns="http://www.w3.org/2000/svg">
<g clip-path="url(#clip0_341_2805)">
<path d="M0.169056 10.1213V7.63636H13.2248V10.1213H8.1671V24H5.22676V10.1213H0.169056ZM19.1874 24.2397C17.9889 24.2397 16.9502 23.976 16.0713 23.4487C15.1924 22.9213 14.5105 22.1836 14.0258 21.2354C13.5464 20.2873 13.3067 19.1793 13.3067 17.9116C13.3067 16.6438 13.5464 15.5332 14.0258 14.5797C14.5105 13.6262 15.1924 12.8858 16.0713 12.3585C16.9502 11.8311 17.9889 11.5675 19.1874 11.5675C20.3859 11.5675 21.4246 11.8311 22.3035 12.3585C23.1824 12.8858 23.8616 13.6262 24.341 14.5797C24.8257 15.5332 25.0681 16.6438 25.0681 17.9116C25.0681 19.1793 24.8257 20.2873 24.341 21.2354C23.8616 22.1836 23.1824 22.9213 22.3035 23.4487C21.4246 23.976 20.3859 24.2397 19.1874 24.2397ZM19.2034 21.9226C19.8532 21.9226 20.3966 21.7441 20.8333 21.3873C21.2701 21.025 21.5951 20.5403 21.8081 19.9331C22.0265 19.3258 22.1357 18.6493 22.1357 17.9036C22.1357 17.1525 22.0265 16.4734 21.8081 15.8661C21.5951 15.2536 21.2701 14.7662 20.8333 14.4039C20.3966 14.0417 19.8532 13.8606 19.2034 13.8606C18.5375 13.8606 17.9836 14.0417 17.5414 14.4039C17.1046 14.7662 16.7771 15.2536 16.5587 15.8661C16.3456 16.4734 16.2391 17.1525 16.2391 17.9036C16.2391 18.6493 16.3456 19.3258 16.5587 19.9331C16.7771 20.5403 17.1046 21.025 17.5414 21.3873C17.9836 21.7441 18.5375 21.9226 19.2034 21.9226ZM35.3453 18.8384V11.7273H38.2377V24H35.4332V21.8187H35.3053C35.0283 22.5059 34.5729 23.0678 33.939 23.5046C33.3105 23.9414 32.5354 24.1598 31.6139 24.1598C30.8096 24.1598 30.0985 23.9814 29.4806 23.6245C28.868 23.2623 28.3886 22.7376 28.0424 22.0504C27.6961 21.358 27.523 20.5217 27.523 19.5415V11.7273H30.4154V19.0941C30.4154 19.8718 30.6285 20.4897 31.0546 20.9478C31.4808 21.4059 32.0401 21.6349 32.7325 21.6349C33.1587 21.6349 33.5715 21.5311 33.971 21.3233C34.3705 21.1156 34.6981 20.8066 34.9538 20.3965C35.2148 19.981 35.3453 19.4616 35.3453 18.8384Z" fill="url(#paint0_linear_341_2805)"/>
</g>
<defs>
<linearGradient id="paint0_linear_341_2805" x1="1" y1="8" x2="32" y2="17.5" gradientUnits="userSpaceOnUse">
<stop/>
<stop offset="1" stop-color="#666666" stop-opacity="0.1"/>
</linearGradient>
<clipPath id="clip0_341_2805">
<rect width="32" height="32" fill="white"/>
</clipPath>
</defs>
</svg>
