<svg width="374" height="31" viewBox="0 0 374 31" fill="none" xmlns="http://www.w3.org/2000/svg">
<path d="M6.75 26.7734V7.61719H0V4.22656H17.5V7.61719H10.7656V26.7734H6.75Z" fill="white"/>
<path d="M29.2106 27.1641C22.6169 27.1641 18.5075 22.6797 18.5075 15.5078V15.4766C18.5075 8.32031 22.6481 3.83594 29.2106 3.83594C35.7887 3.83594 39.8981 8.32031 39.8981 15.4766V15.5078C39.8981 22.6797 35.8044 27.1641 29.2106 27.1641ZM29.2106 23.6641C33.2887 23.6641 35.8044 20.4766 35.8044 15.5078V15.4766C35.8044 10.4766 33.2419 7.33594 29.2106 7.33594C25.195 7.33594 22.6169 10.4609 22.6169 15.4766V15.5078C22.6169 20.5234 25.1794 23.6641 29.2106 23.6641Z" fill="white"/>
<path d="M52.7181 27.1641C46.9994 27.1641 43.4369 23.8047 43.4369 18.8203V4.22656H47.4681V18.4922C47.4681 21.6172 49.3744 23.6641 52.7181 23.6641C56.0619 23.6641 57.9525 21.6172 57.9525 18.4922V4.22656H61.9681V18.8203C61.9681 23.8047 58.4525 27.1641 52.7181 27.1641Z" fill="white"/>
<path d="M76.1006 27.1641C69.6162 27.1641 65.5225 22.6953 65.5225 15.4922V15.4766C65.5225 8.27344 69.6319 3.83594 76.1006 3.83594C81.2881 3.83594 85.1006 7.07031 85.6944 11.6641L85.71 11.8203H81.7569L81.6787 11.5234C81.0225 8.94531 79.0381 7.33594 76.1006 7.33594C72.1631 7.33594 69.6475 10.4766 69.6475 15.4766V15.4922C69.6475 20.5078 72.1787 23.6641 76.1006 23.6641C78.9756 23.6641 80.9912 22.1172 81.7256 19.3359L81.7725 19.1797H85.7256L85.6944 19.3359C85.1162 23.9609 81.2881 27.1641 76.1006 27.1641Z" fill="white"/>
<path d="M89.1081 26.7734V4.22656H93.1394V13.6016H104.108V4.22656H108.124V26.7734H104.108V16.9922H93.1394V26.7734H89.1081Z" fill="white"/>
<path d="M112.428 26.7734V4.22656H120.662C127.381 4.22656 131.381 8.28906 131.381 15.4141V15.4453C131.381 22.5859 127.412 26.7734 120.662 26.7734H112.428ZM116.459 23.3672H120.241C124.772 23.3672 127.272 20.6016 127.272 15.4609V15.4297C127.272 10.3984 124.725 7.63281 120.241 7.63281H116.459V23.3672Z" fill="white"/>
<path d="M144.842 27.1641C138.248 27.1641 134.139 22.6797 134.139 15.5078V15.4766C134.139 8.32031 138.279 3.83594 144.842 3.83594C151.42 3.83594 155.529 8.32031 155.529 15.4766V15.5078C155.529 22.6797 151.436 27.1641 144.842 27.1641ZM144.842 23.6641C148.92 23.6641 151.436 20.4766 151.436 15.5078V15.4766C151.436 10.4766 148.873 7.33594 144.842 7.33594C140.826 7.33594 138.248 10.4609 138.248 15.4766V15.5078C138.248 20.5234 140.811 23.6641 144.842 23.6641Z" fill="white"/>
<path d="M163.021 26.7734L156.974 4.22656H161.162L165.084 21.2422H165.162L169.678 4.22656H173.334L177.849 21.2422H177.928L181.849 4.22656H186.037L179.99 26.7734H176.099L171.553 10.6016H171.459L166.912 26.7734H163.021Z" fill="white"/>
<path d="M189.013 26.7734V4.22656H192.638L203.622 20.0234H203.716V4.22656H207.716V26.7734H204.122L193.107 10.9141H193.029V26.7734H189.013Z" fill="white"/>
<mask id="path-2-inside-1_227_2874" fill="white">
<path d="M223.715 0H224.715V31H223.715V0Z"/>
</mask>
<path d="M223.715 31H224.715V0H223.715H222.715V31H223.715Z" fill="#686868" mask="url(#path-2-inside-1_227_2874)"/>
<path d="M240.715 21.8413V9.15869H248.572V10.5825H242.297V14.6519H248.247V16.0581H242.297V20.4175H248.572V21.8413H240.715Z" fill="white"/>
<path d="M250.075 21.8413L253.186 17.271L250.128 12.7007H251.833L254.03 16.1284H254.065L256.236 12.7007H257.941L254.856 17.2095L257.897 21.8413H256.201L254.012 18.3608H253.977L251.771 21.8413H250.075Z" fill="white"/>
<path d="M263.17 22.0171C260.542 22.0171 258.96 20.1802 258.96 17.3062V17.2974C258.96 14.4673 260.577 12.5249 263.074 12.5249C265.57 12.5249 267.09 14.3794 267.09 17.1216V17.6841H260.507C260.542 19.5649 261.579 20.6636 263.205 20.6636C264.366 20.6636 265.183 20.0835 265.447 19.3013L265.473 19.2222H266.976L266.958 19.3101C266.659 20.8218 265.165 22.0171 263.17 22.0171ZM263.065 13.8784C261.738 13.8784 260.7 14.7837 260.533 16.4888H265.534C265.385 14.7134 264.401 13.8784 263.065 13.8784Z" fill="white"/>
<path d="M272.785 22.0171C270.192 22.0171 268.549 20.1714 268.549 17.2622V17.2534C268.549 14.3706 270.227 12.5249 272.768 12.5249C275.044 12.5249 276.389 14.0366 276.582 15.6011L276.591 15.6714H275.097L275.079 15.6011C274.851 14.687 274.112 13.8784 272.768 13.8784C271.177 13.8784 270.113 15.1968 270.113 17.271V17.2798C270.113 19.4067 271.203 20.6636 272.785 20.6636C274.033 20.6636 274.833 19.9604 275.088 18.9409L275.105 18.8706H276.608L276.6 18.9321C276.353 20.6724 274.851 22.0171 272.785 22.0171Z" fill="white"/>
<path d="M281.495 22.0171C279.491 22.0171 278.331 20.7163 278.331 18.6333V12.7007H279.86V18.3608C279.86 19.8462 280.554 20.6636 281.961 20.6636C283.402 20.6636 284.342 19.6353 284.342 18.0796V12.7007H285.872V21.8413H284.342V20.5405H284.307C283.815 21.3931 282.883 22.0171 281.495 22.0171Z" fill="white"/>
<path d="M291.197 22.0171C289.519 22.0171 288.693 21.2612 288.693 19.5122V13.9663H287.357V12.7007H288.693V10.231H290.275V12.7007H292.015V13.9663H290.275V19.5034C290.275 20.479 290.705 20.7515 291.523 20.7515C291.707 20.7515 291.883 20.7251 292.015 20.7163V21.9556C291.821 21.9819 291.496 22.0171 291.197 22.0171Z" fill="white"/>
<path d="M294.88 11.1538C294.352 11.1538 293.922 10.7231 293.922 10.1958C293.922 9.65967 294.352 9.23779 294.88 9.23779C295.416 9.23779 295.838 9.65967 295.838 10.1958C295.838 10.7231 295.416 11.1538 294.88 11.1538ZM294.115 21.8413V12.7007H295.644V21.8413H294.115Z" fill="white"/>
<path d="M300.663 21.8413L297.296 12.7007H298.905L301.427 20.2153H301.462L303.994 12.7007H305.584L302.227 21.8413H300.663Z" fill="white"/>
<path d="M310.559 22.0171C307.931 22.0171 306.349 20.1802 306.349 17.3062V17.2974C306.349 14.4673 307.966 12.5249 310.462 12.5249C312.958 12.5249 314.479 14.3794 314.479 17.1216V17.6841H307.896C307.931 19.5649 308.968 20.6636 310.594 20.6636C311.754 20.6636 312.571 20.0835 312.835 19.3013L312.861 19.2222H314.364L314.347 19.3101C314.048 20.8218 312.554 22.0171 310.559 22.0171ZM310.453 13.8784C309.126 13.8784 308.089 14.7837 307.922 16.4888H312.923C312.774 14.7134 311.789 13.8784 310.453 13.8784Z" fill="white"/>
<path d="M324.823 22.0522C322.08 22.0522 320.226 20.7075 320.068 18.5366L320.059 18.4136H321.641L321.659 18.5366C321.843 19.811 323.074 20.5933 324.911 20.5933C326.739 20.5933 327.89 19.7671 327.89 18.4575V18.4487C327.89 17.3325 327.161 16.7085 325.42 16.3218L324.014 16.0142C321.536 15.4692 320.375 14.353 320.375 12.4985V12.4897C320.384 10.4067 322.23 8.94775 324.84 8.94775C327.319 8.94775 329.129 10.3804 329.27 12.4546L329.279 12.5864H327.697L327.679 12.4634C327.486 11.1714 326.405 10.4067 324.796 10.4067C323.1 10.4155 321.993 11.2241 321.993 12.4458V12.4546C321.993 13.4917 322.757 14.1421 324.41 14.5024L325.816 14.8101C328.417 15.3813 329.507 16.436 329.507 18.3696V18.3784C329.507 20.6284 327.723 22.0522 324.823 22.0522Z" fill="white"/>
<path d="M335.246 22.0171C332.618 22.0171 331.036 20.1802 331.036 17.3062V17.2974C331.036 14.4673 332.653 12.5249 335.149 12.5249C337.646 12.5249 339.166 14.3794 339.166 17.1216V17.6841H332.583C332.618 19.5649 333.655 20.6636 335.281 20.6636C336.441 20.6636 337.259 20.0835 337.522 19.3013L337.549 19.2222H339.052L339.034 19.3101C338.735 20.8218 337.241 22.0171 335.246 22.0171ZM335.141 13.8784C333.814 13.8784 332.776 14.7837 332.609 16.4888H337.61C337.461 14.7134 336.477 13.8784 335.141 13.8784Z" fill="white"/>
<path d="M343.745 22.0171C341.925 22.0171 340.704 20.9185 340.704 19.2573V19.2397C340.704 17.6841 341.917 16.7085 344.017 16.5854L346.636 16.436V15.6714C346.636 14.5552 345.907 13.8784 344.632 13.8784C343.455 13.8784 342.716 14.4409 342.541 15.2583L342.523 15.3374H341.047L341.055 15.2407C341.187 13.7378 342.497 12.5249 344.65 12.5249C346.812 12.5249 348.166 13.6938 348.166 15.522V21.8413H346.636V20.356H346.601C346.065 21.3579 344.966 22.0171 343.745 22.0171ZM342.268 19.2573C342.268 20.1362 342.989 20.6899 344.088 20.6899C345.529 20.6899 346.636 19.6968 346.636 18.3696V17.6226L344.193 17.772C342.971 17.8423 342.268 18.3872 342.268 19.2397V19.2573Z" fill="white"/>
<path d="M350.468 21.8413V12.7007H351.997V14.2476H352.033C352.34 13.1929 353.131 12.5249 354.159 12.5249C354.423 12.5249 354.652 12.5688 354.775 12.5864V14.0718C354.652 14.0278 354.326 13.9839 353.957 13.9839C352.771 13.9839 351.997 14.8101 351.997 16.1987V21.8413H350.468Z" fill="white"/>
<path d="M359.731 22.0171C357.139 22.0171 355.495 20.1714 355.495 17.2622V17.2534C355.495 14.3706 357.174 12.5249 359.714 12.5249C361.99 12.5249 363.335 14.0366 363.528 15.6011L363.537 15.6714H362.043L362.025 15.6011C361.797 14.687 361.059 13.8784 359.714 13.8784C358.123 13.8784 357.06 15.1968 357.06 17.271V17.2798C357.06 19.4067 358.149 20.6636 359.731 20.6636C360.979 20.6636 361.779 19.9604 362.034 18.9409L362.052 18.8706H363.555L363.546 18.9321C363.3 20.6724 361.797 22.0171 359.731 22.0171Z" fill="white"/>
<path d="M365.4 21.8413V9.15869H366.929V14.1597H366.964C367.457 13.1313 368.45 12.5249 369.812 12.5249C371.754 12.5249 373.082 14.0278 373.082 16.2427V21.8413H371.552V16.5063C371.552 14.854 370.709 13.8784 369.285 13.8784C367.87 13.8784 366.929 14.9507 366.929 16.5063V21.8413H365.4Z" fill="white"/>
</svg>
