<svg width="1005" height="818" viewBox="0 0 1005 818" fill="none" xmlns="http://www.w3.org/2000/svg">
<path d="M1004.37 653.055L995.984 662.965V682.022L1004.37 688.121V734.621H979.976L982.263 739.958L1004.37 752.917V792.557L979.976 778.073L956.345 741.482L961.681 729.285L939.573 720.9V701.843L900.696 658.392V606.555L810.744 544.046L797.785 545.57L776.44 524.226L748.235 474.676L740.612 499.07L727.653 483.824V464.767L687.251 483.824L694.112 515.078L729.94 545.57L740.612 584.448L744.424 585.973H750.522L772.629 600.456L806.171 609.603L801.597 617.227L841.999 638.571L875.54 665.252L869.441 679.735L855.721 662.965H826.753L820.654 684.31L831.326 691.17L832.852 711.752L817.605 718.613L820.654 732.335L807.695 746.818L790.925 748.343L808.457 710.99L790.925 669.826L771.104 661.44L768.817 651.53H752.81L738.325 633.235L716.981 627.137L647.611 568.439L631.604 533.373L607.209 522.701L591.963 516.603L580.529 518.89L578.242 524.226L557.66 535.66L530.979 553.193L527.168 557.005L507.348 560.054L492.864 553.193L459.322 548.619L451.699 545.57L420.445 571.488L421.97 605.792L389.953 627.899L367.084 629.424L351.075 645.432L319.821 696.507L325.92 723.949L302.288 755.966L269.509 773.499L264.173 792.557L193.278 791.032L155.164 817.713L138.393 807.04L136.868 784.171L114.762 773.499L91.8926 780.359L56.0645 775.786L69.7852 736.908L43.8672 708.703L54.54 682.785L62.9248 680.498L73.5967 641.62L86.5566 624.85L81.9824 609.603V585.973L68.2607 558.529L118.573 538.71L144.491 547.095H189.467L258.074 550.145L283.993 557.005L299.239 522.701L305.337 483.824L324.395 495.259L311.436 476.201L303.812 460.192L306.862 445.709L290.091 441.135L280.182 428.176L276.37 415.217H270.271V407.594L261.124 403.02L253.501 399.208H244.354L228.345 393.872H220.722L211.574 384.725L222.246 379.389H210.05L218.435 374.052L209.287 373.29L206.238 366.429L215.386 364.143L238.255 361.093L253.501 355.757L268.747 364.143H299.239L301.525 344.322L293.141 326.789L311.436 331.363L317.534 338.986L343.452 340.511L351.075 336.699V331.363L360.985 320.69L392.24 307.731L393.765 284.862L423.494 278.765L440.265 266.567L466.184 271.142L447.126 263.519L455.511 255.133L469.995 252.846L462.372 248.272L493.626 210.919L511.922 197.96L533.266 191.861L537.84 197.96L544.7 204.059H550.799L544.7 195.673L550.799 185.764H569.095L570.619 195.673L581.291 190.337L582.815 197.96L585.865 183.477H607.209L623.218 190.337L595.013 174.329L585.865 140.787L575.955 113.345V86.664L585.865 88.1885L581.291 78.2783L595.013 67.6064L639.227 52.3603L640.751 69.1308L639.227 78.2783L633.89 89.7129L646.85 94.2871L639.227 105.722L620.931 121.729V133.927L633.89 121.729H643.8L646.85 139.263L639.227 142.311L617.119 139.263L615.595 149.173L633.89 162.895H652.947L648.374 176.615L664.382 178.141L714.694 160.607L723.079 162.895L718.506 172.042L729.178 178.141L735.276 185.764L743.662 188.05L751.285 185.764L736.801 179.665L802.359 167.468L799.31 160.607L848.859 147.648L856.482 160.607L882.401 165.181L903.745 159.083L896.122 151.46V143.837L924.327 146.123L930.426 133.927V124.779L919.754 111.819L918.229 85.1396L926.614 74.4668V66.082L932.713 54.6474L953.295 48.5488L974.64 67.6064L984.55 75.9912L1003.61 69.1308V54.6474L999.033 48.5488L1003.61 38.6386L1002.08 31.0156L992.173 34.0644L976.164 21.8681H1003.61L1004.37 653.055ZM777.964 765.876L784.824 781.885L776.438 794.081L722.315 765.876L704.02 762.827L701.733 743.77L729.938 739.195L765.004 743.77L793.21 735.384L777.964 765.876ZM621.691 659.916L613.306 701.08H601.109L595.772 708.703L575.19 707.179L580.526 675.924L571.379 649.243V641.621L585.101 643.907L604.158 627.899L621.691 659.916ZM423.492 698.031L402.91 686.597L423.492 677.449L432.64 675.924L423.492 698.031ZM612.544 596.645L603.396 617.989L591.961 613.415L583.576 592.833L588.149 582.161L601.871 579.874L609.494 566.915L612.544 596.645ZM258.074 53.122H312.96L286.279 98.0986L275.607 104.959L302.288 112.582L318.297 133.164L327.444 151.46L348.026 165.943L357.937 193.387L335.067 183.477L338.116 209.395L365.56 217.018L383.092 209.395L399.863 237.6L365.56 263.519L389.953 272.666L370.896 290.199L307.624 287.149L322.87 297.06L264.173 290.199L242.828 307.731L222.246 304.683L206.238 314.593H190.229L232.156 278.765L264.173 272.666L286.279 255.133L242.828 266.567L215.386 255.133L210.05 244.461L235.968 232.264V220.829L222.246 217.018L235.968 197.96L271.033 201.771V190.337L275.607 175.091L264.173 169.755L258.074 161.369L271.033 145.361H258.074L235.968 151.46L219.197 145.361L232.156 130.115L230.632 120.205L235.968 108.77L218.435 112.582L210.812 130.115L197.853 117.156L226.058 82.8525L200.14 95.8115L190.992 85.1396L210.05 70.6552L191.754 63.0322L216.147 45.499H228.345L235.968 21.8681H286.279L258.074 53.122ZM209.287 163.656L186.418 181.952L189.467 211.682L171.934 241.411L149.064 242.936L128.482 253.608L85.0312 261.231L64.4492 242.936L82.7441 233.788L114.761 222.353L79.6953 224.641L91.8916 211.682L119.335 206.346L93.417 204.821L78.9326 196.436L93.417 170.518H111.712L134.581 159.845L122.384 152.984L154.401 134.689H190.229L209.287 163.656ZM693.348 109.533L684.962 127.065L694.872 137.738L684.962 157.558L659.044 155.271L651.421 147.648L684.962 143.074L659.044 131.64L651.421 117.918L668.191 105.722L693.348 109.533ZM780.844 0.0478279C780.852 0.0468217 784.707 -0.449938 788.844 1.78123C792.984 4.01466 794.344 8.06345 794.344 8.06345L802.357 27.2041L804.645 46.2617L797.021 60.7451V75.9912L787.111 99.623L748.233 108.009L739.086 114.106L741.373 127.065L715.454 131.64L697.922 127.065L707.069 117.918L694.872 99.623L700.971 85.9013L668.191 37.1142L673.528 30.2529H664.38L661.331 21.8681L673.528 5.39158L672.844 4.28123C672.837 4.27173 671.847 2.776 672.844 1.28123C673.838 -0.210385 676.505 0.0450706 676.533 0.0478279H780.844ZM857.243 63.0322L842.759 75.9912L839.71 56.9336L865.628 37.1142L857.243 63.0322ZM510.844 0.0478279L524.844 0.281226L580.844 0.0478279C580.846 0.0477647 582.813 -0.00628128 583.578 0.99314C584.564 2.28135 583.578 4.05564 583.578 4.05564L580.461 8.06345L595.011 21.8681L566.043 42.4502L537.075 37.1142L542.412 30.2529L511.92 21.8681L506.844 4.28123C506.844 4.28123 506.111 2.78107 507.344 1.28123C508.577 -0.218668 510.844 0.0478279 510.844 0.0478279ZM959.394 31.0156L940.336 42.4502L935.762 26.4414L953.295 21.8681H967.017L959.394 31.0156Z" fill="#E4E4E4"/>
<path d="M527.715 188.629C528.568 188.629 529.298 188.325 529.903 187.717C530.509 187.11 530.812 186.379 530.812 185.526C530.812 184.673 530.509 183.943 529.901 183.337C529.293 182.731 528.562 182.428 527.709 182.428C526.856 182.428 526.126 182.732 525.52 183.34C524.914 183.948 524.611 184.678 524.611 185.532C524.611 186.385 524.915 187.115 525.523 187.72C526.131 188.326 526.861 188.629 527.715 188.629ZM527.712 205.171C523.395 201.43 520.158 197.95 518.001 194.728C515.844 191.507 514.766 188.549 514.766 185.855C514.766 181.897 516.046 178.693 518.606 176.242C521.167 173.791 524.202 172.566 527.712 172.566C531.221 172.566 534.257 173.791 536.817 176.242C539.378 178.693 540.658 181.897 540.658 185.855C540.658 188.549 539.579 191.507 537.422 194.728C535.265 197.95 532.028 201.43 527.712 205.171Z" fill="#B3B3B3"/>
<path d="M339.293 230.219C340.146 230.219 340.876 229.915 341.482 229.308C342.088 228.7 342.391 227.969 342.391 227.116C342.391 226.263 342.087 225.533 341.479 224.927C340.871 224.321 340.141 224.019 339.287 224.019C338.434 224.019 337.704 224.322 337.098 224.93C336.492 225.538 336.189 226.269 336.189 227.122C336.189 227.975 336.493 228.705 337.101 229.311C337.709 229.916 338.439 230.219 339.293 230.219ZM339.29 246.761C334.973 243.021 331.737 239.54 329.579 236.319C327.422 233.097 326.344 230.139 326.344 227.445C326.344 223.487 327.624 220.283 330.184 217.832C332.745 215.382 335.78 214.156 339.29 214.156C342.799 214.156 345.835 215.382 348.395 217.832C350.956 220.283 352.236 223.487 352.236 227.445C352.236 230.139 351.158 233.097 349 236.319C346.843 239.54 343.606 243.021 339.29 246.761Z" fill="#B3B3B3"/>
<path d="M742.309 338.188C743.162 338.188 743.891 337.884 744.497 337.276C745.103 336.668 745.406 335.938 745.406 335.084C745.406 334.231 745.102 333.501 744.495 332.895C743.887 332.29 743.156 331.987 742.303 331.987C741.449 331.987 740.72 332.291 740.114 332.898C739.508 333.506 739.205 334.237 739.205 335.09C739.205 335.944 739.509 336.673 740.117 337.279C740.724 337.885 741.455 338.188 742.309 338.188ZM742.306 354.729C737.989 350.989 734.752 347.508 732.595 344.287C730.438 341.065 729.359 338.107 729.359 335.414C729.359 331.456 730.64 328.251 733.2 325.801C735.761 323.35 738.796 322.125 742.306 322.125C745.815 322.125 748.85 323.35 751.411 325.801C753.972 328.251 755.252 331.456 755.252 335.414C755.252 338.107 754.173 341.065 752.016 344.287C749.859 347.508 746.622 350.989 742.306 354.729Z" fill="#B3B3B3"/>
<path d="M864.66 426.467C865.513 426.467 866.243 426.164 866.849 425.556C867.455 424.948 867.758 424.218 867.758 423.364C867.758 422.511 867.454 421.781 866.846 421.175C866.238 420.569 865.508 420.267 864.654 420.267C863.801 420.267 863.071 420.57 862.466 421.178C861.86 421.786 861.557 422.517 861.557 423.37C861.557 424.224 861.86 424.953 862.468 425.559C863.076 426.165 863.807 426.467 864.66 426.467ZM864.657 443.009C860.341 439.269 857.104 435.788 854.947 432.567C852.79 429.345 851.711 426.387 851.711 423.694C851.711 419.735 852.991 416.531 855.552 414.08C858.112 411.63 861.148 410.404 864.657 410.404C868.167 410.404 871.202 411.63 873.763 414.08C876.323 416.531 877.603 419.735 877.603 423.694C877.603 426.387 876.525 429.345 874.368 432.567C872.211 435.788 868.974 439.269 864.657 443.009Z" fill="#B3B3B3"/>
<path d="M645.113 391.401C645.967 391.401 646.696 391.097 647.302 390.489C647.908 389.882 648.211 389.151 648.211 388.298C648.211 387.445 647.907 386.715 647.299 386.109C646.692 385.503 645.961 385.2 645.107 385.2C644.254 385.2 643.524 385.504 642.919 386.112C642.313 386.72 642.01 387.45 642.01 388.304C642.01 389.157 642.314 389.887 642.921 390.492C643.529 391.098 644.26 391.401 645.113 391.401ZM645.11 407.943C640.794 404.202 637.557 400.722 635.4 397.5C633.243 394.279 632.164 391.321 632.164 388.627C632.164 384.669 633.444 381.465 636.005 379.014C638.566 376.563 641.601 375.338 645.11 375.338C648.62 375.338 651.655 376.563 654.216 379.014C656.776 381.465 658.056 384.669 658.056 388.627C658.056 391.321 656.978 394.279 654.821 397.5C652.664 400.722 649.427 404.202 645.11 407.943Z" fill="#B3B3B3"/>
<path d="M585.652 479.829C586.506 479.829 587.235 479.525 587.841 478.917C588.447 478.309 588.75 477.579 588.75 476.726C588.75 475.872 588.446 475.143 587.838 474.537C587.231 473.931 586.5 473.628 585.646 473.628C584.793 473.628 584.063 473.932 583.458 474.54C582.852 475.147 582.549 475.878 582.549 476.732C582.549 477.585 582.853 478.314 583.46 478.92C584.068 479.526 584.799 479.829 585.652 479.829ZM585.649 496.37C581.333 492.63 578.096 489.149 575.939 485.928C573.782 482.706 572.703 479.749 572.703 477.055C572.703 473.097 573.983 469.892 576.544 467.442C579.105 464.991 582.14 463.766 585.649 463.766C589.159 463.766 592.194 464.991 594.755 467.442C597.315 469.892 598.596 473.097 598.596 477.055C598.596 479.749 597.517 482.706 595.36 485.928C593.203 489.149 589.966 492.63 585.649 496.37Z" fill="#B3B3B3"/>
<path d="M526.191 412.746C527.045 412.746 527.774 412.442 528.38 411.834C528.986 411.226 529.289 410.496 529.289 409.643C529.289 408.789 528.985 408.06 528.377 407.454C527.77 406.848 527.039 406.545 526.185 406.545C525.332 406.545 524.603 406.849 523.997 407.457C523.391 408.064 523.088 408.795 523.088 409.649C523.088 410.502 523.392 411.231 523.999 411.837C524.607 412.443 525.338 412.746 526.191 412.746ZM526.188 429.287C521.872 425.547 518.635 422.066 516.478 418.845C514.321 415.623 513.242 412.666 513.242 409.972C513.242 406.014 514.522 402.809 517.083 400.359C519.644 397.908 522.679 396.683 526.188 396.683C529.698 396.683 532.733 397.908 535.294 400.359C537.854 402.809 539.135 406.014 539.135 409.972C539.135 412.666 538.056 415.623 535.899 418.845C533.742 422.066 530.505 425.547 526.188 429.287Z" fill="#B3B3B3"/>
<path d="M392.035 391.401C392.888 391.401 393.618 391.097 394.224 390.489C394.83 389.882 395.133 389.151 395.133 388.298C395.133 387.445 394.829 386.715 394.221 386.109C393.613 385.503 392.883 385.2 392.029 385.2C391.176 385.2 390.446 385.504 389.841 386.112C389.235 386.72 388.932 387.45 388.932 388.304C388.932 389.157 389.235 389.887 389.843 390.492C390.451 391.098 391.182 391.401 392.035 391.401ZM392.032 407.943C387.716 404.202 384.479 400.722 382.322 397.5C380.165 394.279 379.086 391.321 379.086 388.627C379.086 384.669 380.366 381.465 382.927 379.014C385.487 376.563 388.523 375.338 392.032 375.338C395.542 375.338 398.577 376.563 401.138 379.014C403.698 381.465 404.978 384.669 404.978 388.627C404.978 391.321 403.9 394.279 401.743 397.5C399.586 400.722 396.349 404.202 392.032 407.943Z" fill="#B3B3B3"/>
<path d="M405.754 597.223C406.607 597.223 407.337 596.919 407.942 596.312C408.548 595.704 408.852 594.973 408.852 594.12C408.852 593.267 408.548 592.537 407.94 591.931C407.332 591.325 406.601 591.022 405.748 591.022C404.895 591.022 404.165 591.326 403.559 591.934C402.953 592.542 402.65 593.272 402.65 594.126C402.65 594.979 402.954 595.709 403.562 596.315C404.17 596.92 404.9 597.223 405.754 597.223ZM405.751 613.765C401.434 610.025 398.198 606.544 396.04 603.322C393.883 600.101 392.805 597.143 392.805 594.449C392.805 590.491 394.085 587.287 396.645 584.836C399.206 582.386 402.241 581.16 405.751 581.16C409.26 581.16 412.296 582.386 414.856 584.836C417.417 587.287 418.697 590.491 418.697 594.449C418.697 597.143 417.619 600.101 415.461 603.322C413.304 606.544 410.067 610.025 405.751 613.765Z" fill="#B3B3B3"/>
<path d="M209.074 649.06C209.928 649.06 210.657 648.756 211.263 648.148C211.869 647.54 212.172 646.81 212.172 645.956C212.172 645.103 211.868 644.374 211.26 643.767C210.652 643.162 209.922 642.859 209.068 642.859C208.215 642.859 207.485 643.163 206.88 643.771C206.274 644.378 205.971 645.109 205.971 645.963C205.971 646.816 206.274 647.545 206.882 648.151C207.49 648.757 208.221 649.06 209.074 649.06ZM209.071 665.601C204.755 661.861 201.518 658.38 199.361 655.159C197.204 651.937 196.125 648.98 196.125 646.286C196.125 642.328 197.405 639.123 199.966 636.673C202.526 634.222 205.562 632.997 209.071 632.997C212.581 632.997 215.616 634.222 218.177 636.673C220.737 639.123 222.017 642.328 222.017 646.286C222.017 648.98 220.939 651.937 218.782 655.159C216.625 658.38 213.388 661.861 209.071 665.601Z" fill="#B3B3B3"/>
<path d="M87.0976 618.568C87.9509 618.568 88.6805 618.264 89.2862 617.656C89.8922 617.049 90.1953 616.318 90.1953 615.465C90.1953 614.611 89.8914 613.882 89.2836 613.276C88.6759 612.67 87.9452 612.367 87.0916 612.367C86.2383 612.367 85.5088 612.671 84.9031 613.279C84.297 613.887 83.994 614.617 83.994 615.471C83.994 616.324 84.2979 617.054 84.9056 617.659C85.5134 618.265 86.244 618.568 87.0976 618.568ZM87.0946 635.11C82.7781 631.369 79.5413 627.889 77.3841 624.667C75.227 621.445 74.1484 618.488 74.1484 615.794C74.1484 611.836 75.4287 608.632 77.9892 606.181C80.5499 603.73 83.5851 602.505 87.0946 602.505C90.6042 602.505 93.6393 603.73 96.2001 606.181C98.7606 608.632 100.041 611.836 100.041 615.794C100.041 618.488 98.9623 621.445 96.8051 624.667C94.648 627.889 91.4112 631.369 87.0946 635.11Z" fill="#B3B3B3"/>
<path d="M61.1914 693.274C62.0447 693.274 62.7742 692.97 63.38 692.362C63.986 691.754 64.289 691.024 64.289 690.17C64.289 689.317 63.9851 688.587 63.3774 687.981C62.7696 687.376 62.039 687.073 61.1854 687.073C60.3321 687.073 59.6026 687.377 58.9968 687.984C58.3908 688.592 58.0878 689.323 58.0878 690.176C58.0878 691.03 58.3916 691.759 58.9994 692.365C59.6071 692.971 60.3378 693.274 61.1914 693.274ZM61.1884 709.815C56.8718 706.075 53.635 702.594 51.4779 699.373C49.3208 696.151 48.2422 693.193 48.2422 690.5C48.2422 686.542 49.5224 683.337 52.0829 680.887C54.6437 678.436 57.6788 677.21 61.1884 677.21C64.6979 677.21 67.7331 678.436 70.2939 680.887C72.8543 683.337 74.1346 686.542 74.1346 690.5C74.1346 693.193 73.056 696.151 70.8989 699.373C68.7418 702.594 65.5049 706.075 61.1884 709.815Z" fill="#B3B3B3"/>
<path d="M710.981 380.576V367.622H715.839C716.834 367.622 717.669 367.807 718.344 368.178C719.023 368.549 719.535 369.06 719.881 369.709C720.231 370.354 720.406 371.088 720.406 371.91C720.406 372.741 720.231 373.479 719.881 374.124C719.531 374.769 719.014 375.278 718.331 375.649C717.648 376.016 716.807 376.199 715.807 376.199H712.588V374.27H715.491C716.073 374.27 716.549 374.168 716.92 373.966C717.292 373.764 717.566 373.485 717.743 373.131C717.924 372.777 718.015 372.37 718.015 371.91C718.015 371.451 717.924 371.046 717.743 370.696C717.566 370.346 717.289 370.074 716.914 369.88C716.543 369.682 716.064 369.583 715.478 369.583H713.328V380.576H710.981ZM722.453 380.576V370.86H724.673V372.48H724.774C724.952 371.919 725.255 371.486 725.685 371.183C726.12 370.875 726.615 370.721 727.172 370.721C727.298 370.721 727.44 370.727 727.596 370.74C727.756 370.749 727.889 370.763 727.994 370.784V372.891C727.897 372.857 727.743 372.827 727.532 372.802C727.326 372.773 727.125 372.758 726.931 372.758C726.514 372.758 726.139 372.849 725.805 373.03C725.477 373.207 725.217 373.454 725.027 373.77C724.838 374.086 724.743 374.451 724.743 374.864V380.576H722.453ZM732.247 380.772C731.632 380.772 731.077 380.663 730.584 380.443C730.094 380.22 729.707 379.891 729.42 379.457C729.137 379.022 728.996 378.487 728.996 377.85C728.996 377.302 729.097 376.848 729.3 376.49C729.502 376.131 729.778 375.845 730.128 375.63C730.478 375.415 730.873 375.252 731.311 375.143C731.754 375.029 732.211 374.947 732.684 374.896C733.253 374.837 733.715 374.784 734.069 374.738C734.423 374.687 734.68 374.611 734.841 374.51C735.005 374.405 735.087 374.242 735.087 374.023V373.985C735.087 373.509 734.946 373.14 734.664 372.878C734.381 372.617 733.974 372.486 733.443 372.486C732.882 372.486 732.437 372.608 732.108 372.853C731.783 373.097 731.564 373.386 731.45 373.719L729.312 373.416C729.481 372.825 729.759 372.332 730.147 371.936C730.535 371.535 731.01 371.236 731.57 371.037C732.131 370.835 732.751 370.734 733.43 370.734C733.898 370.734 734.364 370.789 734.828 370.898C735.292 371.008 735.716 371.189 736.099 371.442C736.483 371.691 736.791 372.03 737.023 372.461C737.259 372.891 737.377 373.428 737.377 374.074V380.576H735.176V379.241H735.1C734.961 379.511 734.765 379.764 734.512 380.001C734.263 380.232 733.949 380.42 733.569 380.564C733.194 380.703 732.753 380.772 732.247 380.772ZM732.842 379.09C733.302 379.09 733.7 378.999 734.037 378.818C734.375 378.632 734.634 378.388 734.815 378.084C735.001 377.78 735.094 377.449 735.094 377.091V375.946C735.022 376.005 734.9 376.06 734.727 376.11C734.558 376.161 734.368 376.205 734.158 376.243C733.947 376.281 733.738 376.315 733.531 376.344C733.325 376.374 733.145 376.399 732.994 376.42C732.652 376.467 732.346 376.543 732.076 376.648C731.807 376.753 731.594 376.901 731.438 377.091C731.282 377.276 731.204 377.517 731.204 377.812C731.204 378.234 731.357 378.552 731.665 378.767C731.973 378.982 732.365 379.09 732.842 379.09ZM744.015 384.422C743.193 384.422 742.486 384.31 741.896 384.087C741.306 383.868 740.831 383.572 740.473 383.201C740.114 382.83 739.866 382.419 739.726 381.968L741.789 381.468C741.881 381.658 742.016 381.845 742.193 382.031C742.37 382.221 742.609 382.377 742.908 382.499C743.212 382.626 743.593 382.689 744.053 382.689C744.702 382.689 745.24 382.531 745.666 382.214C746.092 381.902 746.305 381.388 746.305 380.671V378.83H746.191C746.073 379.066 745.9 379.309 745.672 379.558C745.449 379.807 745.152 380.015 744.78 380.184C744.414 380.353 743.952 380.437 743.395 380.437C742.649 380.437 741.972 380.262 741.365 379.912C740.762 379.558 740.281 379.031 739.923 378.331C739.568 377.626 739.391 376.745 739.391 375.687C739.391 374.62 739.568 373.719 739.923 372.986C740.281 372.248 740.764 371.689 741.371 371.309C741.978 370.926 742.655 370.734 743.402 370.734C743.971 370.734 744.439 370.831 744.806 371.025C745.177 371.214 745.472 371.444 745.691 371.714C745.911 371.98 746.077 372.231 746.191 372.467H746.318V370.86H748.576V380.734C748.576 381.565 748.378 382.252 747.981 382.796C747.585 383.34 747.043 383.747 746.356 384.017C745.668 384.287 744.888 384.422 744.015 384.422ZM744.034 378.641C744.519 378.641 744.932 378.523 745.274 378.286C745.615 378.05 745.875 377.711 746.052 377.268C746.229 376.825 746.318 376.294 746.318 375.674C746.318 375.062 746.229 374.527 746.052 374.067C745.879 373.608 745.622 373.251 745.28 372.998C744.943 372.741 744.527 372.612 744.034 372.612C743.524 372.612 743.098 372.745 742.756 373.011C742.415 373.277 742.158 373.641 741.985 374.105C741.812 374.565 741.725 375.088 741.725 375.674C741.725 376.269 741.812 376.789 741.985 377.236C742.162 377.679 742.421 378.025 742.763 378.274C743.108 378.518 743.532 378.641 744.034 378.641ZM757.225 376.49V370.86H759.515V380.576H757.295V378.849H757.193C756.974 379.393 756.614 379.838 756.112 380.184C755.614 380.53 755.001 380.703 754.271 380.703C753.634 380.703 753.071 380.561 752.582 380.279C752.097 379.992 751.718 379.577 751.444 379.033C751.17 378.485 751.032 377.822 751.032 377.047V370.86H753.322V376.692C753.322 377.308 753.491 377.797 753.828 378.16C754.166 378.523 754.608 378.704 755.157 378.704C755.494 378.704 755.821 378.622 756.137 378.457C756.453 378.293 756.713 378.048 756.915 377.723C757.122 377.394 757.225 376.983 757.225 376.49ZM766.281 380.766C765.307 380.766 764.465 380.564 763.757 380.159C763.053 379.75 762.511 379.172 762.131 378.426C761.752 377.675 761.562 376.791 761.562 375.775C761.562 374.776 761.752 373.899 762.131 373.144C762.515 372.385 763.051 371.794 763.738 371.373C764.425 370.947 765.233 370.734 766.161 370.734C766.76 370.734 767.325 370.831 767.856 371.025C768.391 371.214 768.864 371.51 769.273 371.91C769.686 372.311 770.011 372.821 770.247 373.441C770.483 374.057 770.601 374.79 770.601 375.642V376.344H762.637V374.801H768.406C768.402 374.362 768.307 373.972 768.122 373.631C767.936 373.285 767.677 373.013 767.344 372.815C767.015 372.617 766.631 372.518 766.192 372.518C765.724 372.518 765.313 372.631 764.959 372.859C764.605 373.083 764.328 373.378 764.13 373.745C763.936 374.107 763.837 374.506 763.833 374.94V376.288C763.833 376.853 763.936 377.338 764.143 377.742C764.35 378.143 764.638 378.451 765.009 378.666C765.381 378.877 765.815 378.982 766.313 378.982C766.646 378.982 766.947 378.936 767.217 378.843C767.487 378.746 767.721 378.605 767.919 378.419C768.117 378.234 768.267 378.004 768.368 377.73L770.506 377.97C770.371 378.535 770.114 379.029 769.735 379.45C769.359 379.868 768.879 380.192 768.292 380.424C767.706 380.652 767.036 380.766 766.281 380.766Z" fill="#424242"/>
<path d="M822.01 468.855V455.901H826.969C827.905 455.901 828.683 456.049 829.303 456.344C829.927 456.635 830.393 457.033 830.701 457.539C831.013 458.045 831.169 458.619 831.169 459.26C831.169 459.787 831.068 460.238 830.866 460.613C830.663 460.984 830.391 461.286 830.05 461.518C829.708 461.75 829.326 461.916 828.905 462.018V462.144C829.364 462.169 829.805 462.311 830.227 462.568C830.653 462.821 831.001 463.179 831.271 463.643C831.54 464.107 831.675 464.668 831.675 465.326C831.675 465.996 831.513 466.599 831.188 467.135C830.864 467.666 830.374 468.086 829.721 468.394C829.067 468.702 828.245 468.855 827.254 468.855H822.01ZM824.357 466.895H826.881C827.732 466.895 828.346 466.732 828.721 466.408C829.101 466.079 829.291 465.657 829.291 465.142C829.291 464.759 829.196 464.413 829.006 464.105C828.816 463.793 828.546 463.548 828.196 463.371C827.846 463.19 827.429 463.099 826.944 463.099H824.357V466.895ZM824.357 461.41H826.678C827.083 461.41 827.448 461.337 827.773 461.189C828.097 461.037 828.352 460.824 828.538 460.55C828.728 460.272 828.823 459.943 828.823 459.563C828.823 459.062 828.645 458.648 828.291 458.324C827.941 457.999 827.42 457.837 826.729 457.837H824.357V461.41ZM833.726 468.855V459.14H835.946V460.759H836.047C836.224 460.198 836.528 459.766 836.958 459.462C837.392 459.154 837.888 459 838.444 459C838.571 459 838.712 459.007 838.868 459.019C839.029 459.028 839.161 459.043 839.267 459.064V461.17C839.17 461.136 839.016 461.107 838.805 461.081C838.598 461.052 838.398 461.037 838.204 461.037C837.787 461.037 837.411 461.128 837.078 461.309C836.749 461.486 836.49 461.733 836.3 462.049C836.11 462.366 836.015 462.73 836.015 463.144V468.855H833.726ZM843.52 469.052C842.904 469.052 842.35 468.942 841.856 468.723C841.367 468.499 840.979 468.17 840.692 467.736C840.41 467.302 840.269 466.766 840.269 466.129C840.269 465.581 840.37 465.128 840.572 464.769C840.775 464.411 841.051 464.124 841.401 463.909C841.751 463.694 842.145 463.532 842.584 463.422C843.027 463.308 843.484 463.226 843.956 463.175C844.526 463.116 844.987 463.063 845.342 463.017C845.696 462.966 845.953 462.891 846.113 462.789C846.278 462.684 846.36 462.522 846.36 462.302V462.264C846.36 461.788 846.219 461.419 845.936 461.157C845.654 460.896 845.247 460.765 844.715 460.765C844.155 460.765 843.71 460.887 843.381 461.132C843.056 461.377 842.837 461.666 842.723 461.999L840.585 461.695C840.754 461.105 841.032 460.611 841.42 460.215C841.808 459.814 842.282 459.515 842.843 459.317C843.404 459.114 844.024 459.013 844.703 459.013C845.171 459.013 845.637 459.068 846.101 459.178C846.565 459.287 846.988 459.468 847.372 459.722C847.756 459.97 848.064 460.31 848.296 460.74C848.532 461.17 848.65 461.708 848.65 462.353V468.855H846.449V467.521H846.373C846.234 467.791 846.037 468.044 845.784 468.28C845.536 468.512 845.222 468.699 844.842 468.843C844.467 468.982 844.026 469.052 843.52 469.052ZM844.115 467.369C844.574 467.369 844.973 467.278 845.31 467.097C845.647 466.911 845.907 466.667 846.088 466.363C846.274 466.06 846.366 465.729 846.366 465.37V464.225C846.295 464.284 846.172 464.339 846 464.39C845.831 464.44 845.641 464.485 845.43 464.523C845.219 464.56 845.011 464.594 844.804 464.624C844.597 464.653 844.418 464.679 844.266 464.7C843.925 464.746 843.619 464.822 843.349 464.927C843.079 465.033 842.866 465.18 842.71 465.37C842.554 465.556 842.476 465.796 842.476 466.091C842.476 466.513 842.63 466.831 842.938 467.046C843.246 467.261 843.638 467.369 844.115 467.369ZM855.914 459.14V460.911H850.329V459.14H855.914ZM851.708 456.812H853.997V465.933C853.997 466.241 854.044 466.477 854.137 466.642C854.234 466.802 854.36 466.911 854.516 466.97C854.672 467.03 854.845 467.059 855.035 467.059C855.178 467.059 855.309 467.048 855.427 467.027C855.549 467.006 855.642 466.987 855.705 466.97L856.091 468.761C855.969 468.803 855.794 468.849 855.566 468.9C855.343 468.95 855.069 468.98 854.744 468.988C854.17 469.005 853.654 468.919 853.194 468.729C852.734 468.535 852.37 468.236 852.1 467.831C851.834 467.426 851.703 466.92 851.708 466.313V456.812ZM857.939 468.855V459.14H860.229V468.855H857.939ZM859.09 457.761C858.728 457.761 858.416 457.64 858.154 457.4C857.893 457.155 857.762 456.862 857.762 456.521C857.762 456.175 857.893 455.882 858.154 455.642C858.416 455.397 858.728 455.275 859.09 455.275C859.457 455.275 859.769 455.397 860.026 455.642C860.288 455.882 860.419 456.175 860.419 456.521C860.419 456.862 860.288 457.155 860.026 457.4C859.769 457.64 859.457 457.761 859.09 457.761ZM870.373 461.708L868.285 461.935C868.226 461.725 868.123 461.526 867.975 461.341C867.832 461.155 867.638 461.006 867.393 460.892C867.149 460.778 866.849 460.721 866.495 460.721C866.019 460.721 865.618 460.824 865.293 461.031C864.973 461.238 864.815 461.505 864.819 461.834C864.815 462.117 864.918 462.347 865.129 462.524C865.344 462.701 865.698 462.846 866.191 462.96L867.849 463.314C868.768 463.513 869.451 463.827 869.898 464.257C870.349 464.687 870.577 465.25 870.581 465.946C870.577 466.557 870.398 467.097 870.044 467.565C869.694 468.029 869.207 468.392 868.583 468.653C867.958 468.915 867.242 469.045 866.432 469.045C865.243 469.045 864.285 468.796 863.56 468.299C862.835 467.797 862.403 467.099 862.263 466.205L864.496 465.99C864.597 466.429 864.813 466.76 865.141 466.983C865.47 467.207 865.898 467.318 866.426 467.318C866.97 467.318 867.406 467.207 867.735 466.983C868.068 466.76 868.235 466.483 868.235 466.154C868.235 465.876 868.127 465.646 867.912 465.465C867.701 465.284 867.372 465.145 866.925 465.048L865.268 464.7C864.336 464.506 863.647 464.179 863.2 463.719C862.753 463.255 862.531 462.669 862.535 461.961C862.531 461.362 862.694 460.843 863.022 460.405C863.356 459.962 863.817 459.62 864.408 459.38C865.002 459.135 865.688 459.013 866.463 459.013C867.602 459.013 868.498 459.256 869.152 459.74C869.81 460.225 870.217 460.881 870.373 461.708ZM874.869 455.901V468.855H872.58V455.901H874.869ZM880.13 469.052C879.514 469.052 878.96 468.942 878.466 468.723C877.977 468.499 877.589 468.17 877.302 467.736C877.02 467.302 876.879 466.766 876.879 466.129C876.879 465.581 876.98 465.128 877.182 464.769C877.385 464.411 877.661 464.124 878.011 463.909C878.361 463.694 878.755 463.532 879.194 463.422C879.636 463.308 880.094 463.226 880.566 463.175C881.136 463.116 881.597 463.063 881.952 463.017C882.306 462.966 882.563 462.891 882.723 462.789C882.888 462.684 882.97 462.522 882.97 462.302V462.264C882.97 461.788 882.829 461.419 882.546 461.157C882.264 460.896 881.857 460.765 881.325 460.765C880.764 460.765 880.32 460.887 879.991 461.132C879.666 461.377 879.447 461.666 879.333 461.999L877.195 461.695C877.363 461.105 877.642 460.611 878.03 460.215C878.418 459.814 878.892 459.515 879.453 459.317C880.014 459.114 880.634 459.013 881.313 459.013C881.781 459.013 882.247 459.068 882.711 459.178C883.174 459.287 883.598 459.468 883.982 459.722C884.366 459.97 884.674 460.31 884.906 460.74C885.142 461.17 885.26 461.708 885.26 462.353V468.855H883.059V467.521H882.983C882.843 467.791 882.647 468.044 882.394 468.28C882.146 468.512 881.831 468.699 881.452 468.843C881.077 468.982 880.636 469.052 880.13 469.052ZM880.724 467.369C881.184 467.369 881.583 467.278 881.92 467.097C882.257 466.911 882.517 466.667 882.698 466.363C882.884 466.06 882.976 465.729 882.976 465.37V464.225C882.905 464.284 882.782 464.339 882.609 464.39C882.441 464.44 882.251 464.485 882.04 464.523C881.829 464.56 881.621 464.594 881.414 464.624C881.207 464.653 881.028 464.679 880.876 464.7C880.535 464.746 880.229 464.822 879.959 464.927C879.689 465.033 879.476 465.18 879.32 465.37C879.164 465.556 879.086 465.796 879.086 466.091C879.086 466.513 879.24 466.831 879.548 467.046C879.856 467.261 880.248 467.369 880.724 467.369ZM896.003 459.14L892.543 468.855H890.013L886.553 459.14H888.994L891.227 466.357H891.328L893.568 459.14H896.003ZM900.215 469.052C899.599 469.052 899.045 468.942 898.551 468.723C898.062 468.499 897.674 468.17 897.387 467.736C897.105 467.302 896.964 466.766 896.964 466.129C896.964 465.581 897.065 465.128 897.267 464.769C897.47 464.411 897.746 464.124 898.096 463.909C898.446 463.694 898.84 463.532 899.279 463.422C899.722 463.308 900.179 463.226 900.651 463.175C901.221 463.116 901.682 463.063 902.037 463.017C902.391 462.966 902.648 462.891 902.808 462.789C902.973 462.684 903.055 462.522 903.055 462.302V462.264C903.055 461.788 902.914 461.419 902.631 461.157C902.349 460.896 901.942 460.765 901.41 460.765C900.85 460.765 900.405 460.887 900.076 461.132C899.751 461.377 899.532 461.666 899.418 461.999L897.28 461.695C897.449 461.105 897.727 460.611 898.115 460.215C898.503 459.814 898.977 459.515 899.538 459.317C900.099 459.114 900.719 459.013 901.398 459.013C901.866 459.013 902.332 459.068 902.796 459.178C903.26 459.287 903.683 459.468 904.067 459.722C904.451 459.97 904.759 460.31 904.991 460.74C905.227 461.17 905.345 461.708 905.345 462.353V468.855H903.144V467.521H903.068C902.929 467.791 902.732 468.044 902.479 468.28C902.231 468.512 901.916 468.699 901.537 468.843C901.162 468.982 900.721 469.052 900.215 469.052ZM900.81 467.369C901.269 467.369 901.668 467.278 902.005 467.097C902.342 466.911 902.602 466.667 902.783 466.363C902.969 466.06 903.061 465.729 903.061 465.37V464.225C902.99 464.284 902.867 464.339 902.695 464.39C902.526 464.44 902.336 464.485 902.125 464.523C901.914 464.56 901.706 464.594 901.499 464.624C901.292 464.653 901.113 464.679 900.961 464.7C900.62 464.746 900.314 464.822 900.044 464.927C899.774 465.033 899.561 465.18 899.405 465.37C899.249 465.556 899.171 465.796 899.171 466.091C899.171 466.513 899.325 466.831 899.633 467.046C899.941 467.261 900.333 467.369 900.81 467.369Z" fill="#424242"/>
<path d="M613.763 420.835H616.634L620.48 430.222H620.632L624.478 420.835H627.35V433.79H625.098V424.89H624.978L621.398 433.752H619.715L616.135 424.871H616.015V433.79H613.763V420.835ZM636.107 429.703V424.074H638.397V433.79H636.176V432.063H636.075C635.856 432.607 635.495 433.052 634.993 433.397C634.496 433.743 633.882 433.916 633.153 433.916C632.516 433.916 631.953 433.775 631.464 433.492C630.979 433.205 630.599 432.79 630.325 432.246C630.051 431.698 629.914 431.036 629.914 430.26V424.074H632.204V429.906C632.204 430.521 632.373 431.011 632.71 431.373C633.047 431.736 633.49 431.917 634.038 431.917C634.376 431.917 634.702 431.835 635.019 431.671C635.335 431.506 635.594 431.261 635.797 430.937C636.003 430.608 636.107 430.197 636.107 429.703ZM643.151 428.097V433.79H640.861V424.074H643.05V425.725H643.164C643.387 425.181 643.743 424.748 644.233 424.428C644.726 424.107 645.335 423.947 646.061 423.947C646.731 423.947 647.315 424.091 647.813 424.377C648.315 424.664 648.703 425.079 648.977 425.623C649.255 426.167 649.392 426.827 649.388 427.603V433.79H647.098V427.957C647.098 427.308 646.929 426.8 646.592 426.433C646.259 426.066 645.797 425.883 645.207 425.883C644.806 425.883 644.45 425.971 644.138 426.148C643.83 426.321 643.587 426.572 643.41 426.901C643.237 427.23 643.151 427.629 643.151 428.097ZM651.826 433.79V424.074H654.116V433.79H651.826ZM652.977 422.695C652.614 422.695 652.302 422.575 652.041 422.334C651.779 422.09 651.649 421.796 651.649 421.455C651.649 421.109 651.779 420.816 652.041 420.576C652.302 420.331 652.614 420.209 652.977 420.209C653.344 420.209 653.656 420.331 653.913 420.576C654.175 420.816 654.305 421.109 654.305 421.455C654.305 421.796 654.175 422.09 653.913 422.334C653.656 422.575 653.344 422.695 652.977 422.695ZM660.818 433.979C659.848 433.979 659.015 433.766 658.32 433.34C657.628 432.915 657.095 432.326 656.719 431.576C656.348 430.821 656.163 429.952 656.163 428.97C656.163 427.983 656.352 427.112 656.732 426.357C657.111 425.598 657.647 425.008 658.339 424.586C659.034 424.16 659.857 423.947 660.806 423.947C661.594 423.947 662.292 424.093 662.899 424.384C663.511 424.67 663.998 425.077 664.36 425.604C664.723 426.127 664.93 426.739 664.98 427.439H662.792C662.703 426.971 662.492 426.581 662.159 426.269C661.83 425.952 661.39 425.794 660.837 425.794C660.369 425.794 659.958 425.921 659.604 426.174C659.249 426.422 658.973 426.781 658.775 427.249C658.581 427.717 658.484 428.278 658.484 428.932C658.484 429.594 658.581 430.163 658.775 430.639C658.969 431.112 659.241 431.477 659.591 431.734C659.945 431.987 660.361 432.113 660.837 432.113C661.175 432.113 661.476 432.05 661.742 431.924C662.012 431.793 662.237 431.605 662.419 431.361C662.6 431.116 662.724 430.819 662.792 430.469H664.98C664.926 431.156 664.723 431.765 664.373 432.297C664.023 432.824 663.547 433.237 662.944 433.537C662.341 433.832 661.632 433.979 660.818 433.979ZM669.26 428.097V433.79H666.971V420.835H669.21V425.725H669.324C669.551 425.176 669.904 424.744 670.38 424.428C670.861 424.107 671.472 423.947 672.214 423.947C672.889 423.947 673.477 424.088 673.979 424.371C674.481 424.653 674.869 425.067 675.143 425.611C675.421 426.155 675.561 426.819 675.561 427.603V433.79H673.271V427.957C673.271 427.304 673.102 426.796 672.765 426.433C672.432 426.066 671.964 425.883 671.36 425.883C670.956 425.883 670.593 425.971 670.272 426.148C669.956 426.321 669.707 426.572 669.526 426.901C669.349 427.23 669.26 427.629 669.26 428.097Z" fill="#424242"/>
<path d="M507.279 455.134V442.18H512.238C513.175 442.18 513.953 442.327 514.573 442.623C515.197 442.913 515.663 443.312 515.97 443.818C516.283 444.324 516.439 444.898 516.439 445.539C516.439 446.066 516.337 446.517 516.135 446.892C515.933 447.263 515.661 447.565 515.319 447.797C514.977 448.029 514.596 448.195 514.174 448.296V448.423C514.634 448.448 515.074 448.59 515.496 448.847C515.922 449.1 516.27 449.458 516.54 449.922C516.81 450.386 516.945 450.947 516.945 451.605C516.945 452.275 516.782 452.878 516.458 453.414C516.133 453.945 515.644 454.365 514.99 454.673C514.336 454.98 513.514 455.134 512.523 455.134H507.279ZM509.626 453.173H512.15C513.002 453.173 513.615 453.011 513.991 452.686C514.37 452.357 514.56 451.936 514.56 451.421C514.56 451.037 514.465 450.692 514.275 450.384C514.086 450.072 513.816 449.827 513.466 449.65C513.116 449.469 512.698 449.378 512.213 449.378H509.626V453.173ZM509.626 447.689H511.948C512.352 447.689 512.717 447.615 513.042 447.468C513.367 447.316 513.622 447.103 513.807 446.829C513.997 446.551 514.092 446.222 514.092 445.842C514.092 445.34 513.915 444.927 513.56 444.602C513.21 444.278 512.69 444.115 511.998 444.115H509.626V447.689ZM523.296 455.324C522.322 455.324 521.481 455.122 520.772 454.717C520.068 454.308 519.526 453.73 519.147 452.984C518.767 452.233 518.577 451.35 518.577 450.333C518.577 449.334 518.767 448.457 519.147 447.702C519.531 446.943 520.066 446.352 520.753 445.931C521.441 445.505 522.248 445.292 523.176 445.292C523.775 445.292 524.34 445.389 524.871 445.583C525.407 445.773 525.879 446.068 526.288 446.468C526.701 446.869 527.026 447.379 527.262 447.999C527.498 448.615 527.617 449.349 527.617 450.2V450.903H519.653V449.359H525.422C525.417 448.921 525.323 448.53 525.137 448.189C524.951 447.843 524.692 447.571 524.359 447.373C524.03 447.175 523.646 447.076 523.208 447.076C522.74 447.076 522.328 447.189 521.974 447.417C521.62 447.641 521.344 447.936 521.146 448.303C520.952 448.665 520.853 449.064 520.848 449.498V450.846C520.848 451.411 520.952 451.896 521.158 452.3C521.365 452.701 521.654 453.009 522.025 453.224C522.396 453.435 522.83 453.54 523.328 453.54C523.661 453.54 523.963 453.494 524.232 453.401C524.502 453.304 524.736 453.163 524.935 452.977C525.133 452.792 525.282 452.562 525.384 452.288L527.522 452.528C527.387 453.093 527.129 453.587 526.75 454.008C526.375 454.426 525.894 454.751 525.308 454.982C524.722 455.21 524.051 455.324 523.296 455.324ZM529.664 455.134V445.418H531.884V447.038H531.985C532.162 446.477 532.466 446.045 532.896 445.741C533.33 445.433 533.826 445.279 534.383 445.279C534.509 445.279 534.65 445.286 534.806 445.298C534.967 445.307 535.099 445.321 535.205 445.342V447.449C535.108 447.415 534.954 447.386 534.743 447.36C534.536 447.331 534.336 447.316 534.142 447.316C533.725 447.316 533.349 447.407 533.016 447.588C532.687 447.765 532.428 448.012 532.238 448.328C532.048 448.644 531.954 449.009 531.954 449.422V455.134H529.664ZM539.126 449.441V455.134H536.836V445.418H539.025V447.069H539.139C539.362 446.525 539.718 446.093 540.208 445.773C540.701 445.452 541.31 445.292 542.036 445.292C542.706 445.292 543.29 445.435 543.788 445.722C544.29 446.009 544.678 446.424 544.952 446.968C545.23 447.512 545.367 448.172 545.363 448.948V455.134H543.073V449.302C543.073 448.653 542.904 448.145 542.567 447.778C542.234 447.411 541.772 447.227 541.182 447.227C540.781 447.227 540.425 447.316 540.113 447.493C539.805 447.666 539.562 447.917 539.385 448.246C539.212 448.575 539.126 448.973 539.126 449.441Z" fill="#424242"/>
<path d="M562.84 509.262H565.711L569.557 518.649H569.709L573.555 509.262H576.427V522.217H574.175V513.317H574.055L570.474 522.179H568.792L565.212 513.298H565.092V522.217H562.84V509.262ZM578.991 522.217V512.501H581.281V522.217H578.991ZM580.142 511.122C579.78 511.122 579.468 511.002 579.206 510.761C578.945 510.517 578.814 510.224 578.814 509.882C578.814 509.536 578.945 509.243 579.206 509.003C579.468 508.758 579.78 508.636 580.142 508.636C580.509 508.636 580.821 508.758 581.078 509.003C581.34 509.243 581.471 509.536 581.471 509.882C581.471 510.224 581.34 510.517 581.078 510.761C580.821 511.002 580.509 511.122 580.142 511.122ZM586.035 509.262V522.217H583.746V509.262H586.035ZM591.296 522.413C590.68 522.413 590.126 522.303 589.632 522.084C589.143 521.86 588.755 521.532 588.468 521.097C588.186 520.663 588.045 520.127 588.045 519.491C588.045 518.942 588.146 518.489 588.348 518.131C588.551 517.772 588.827 517.485 589.177 517.27C589.527 517.055 589.921 516.893 590.36 516.783C590.802 516.669 591.26 516.587 591.732 516.537C592.302 516.477 592.763 516.425 593.118 516.378C593.472 516.328 593.729 516.252 593.889 516.151C594.054 516.045 594.136 515.883 594.136 515.664V515.626C594.136 515.149 593.995 514.78 593.712 514.519C593.43 514.257 593.023 514.127 592.491 514.127C591.93 514.127 591.486 514.249 591.157 514.493C590.832 514.738 590.613 515.027 590.499 515.36L588.361 515.056C588.529 514.466 588.808 513.973 589.196 513.576C589.584 513.176 590.058 512.876 590.619 512.678C591.18 512.476 591.8 512.374 592.479 512.374C592.947 512.374 593.413 512.429 593.877 512.539C594.34 512.648 594.764 512.83 595.148 513.083C595.532 513.332 595.84 513.671 596.072 514.101C596.308 514.531 596.426 515.069 596.426 515.714V522.217H594.225V520.882H594.149C594.009 521.152 593.813 521.405 593.56 521.641C593.312 521.873 592.997 522.061 592.618 522.204C592.243 522.343 591.802 522.413 591.296 522.413ZM591.89 520.73C592.35 520.73 592.749 520.64 593.086 520.458C593.423 520.273 593.683 520.028 593.864 519.725C594.05 519.421 594.142 519.09 594.142 518.731V517.587C594.071 517.646 593.948 517.7 593.775 517.751C593.607 517.802 593.417 517.846 593.206 517.884C592.995 517.922 592.787 517.956 592.58 517.985C592.373 518.015 592.194 518.04 592.042 518.061C591.701 518.107 591.395 518.183 591.125 518.289C590.855 518.394 590.642 518.542 590.486 518.731C590.33 518.917 590.252 519.157 590.252 519.453C590.252 519.874 590.406 520.193 590.714 520.408C591.022 520.623 591.414 520.73 591.89 520.73ZM601.128 516.524V522.217H598.838V512.501H601.027V514.152H601.141C601.364 513.608 601.721 513.176 602.21 512.855C602.703 512.535 603.312 512.374 604.038 512.374C604.708 512.374 605.292 512.518 605.79 512.805C606.292 513.091 606.68 513.507 606.954 514.051C607.232 514.595 607.369 515.255 607.365 516.03V522.217H605.075V516.385C605.075 515.735 604.906 515.227 604.569 514.86C604.236 514.493 603.774 514.31 603.184 514.31C602.783 514.31 602.427 514.399 602.115 514.576C601.807 514.749 601.565 514.999 601.387 515.328C601.215 515.657 601.128 516.056 601.128 516.524Z" fill="#424242"/>
<path d="M370.987 433.79V420.835H375.845C376.84 420.835 377.675 421.021 378.35 421.392C379.029 421.763 379.541 422.273 379.887 422.922C380.237 423.568 380.412 424.301 380.412 425.124C380.412 425.954 380.237 426.692 379.887 427.338C379.537 427.983 379.021 428.491 378.337 428.862C377.654 429.229 376.813 429.412 375.814 429.412H372.594V427.483H375.497C376.079 427.483 376.556 427.382 376.927 427.179C377.298 426.977 377.572 426.699 377.749 426.344C377.93 425.99 378.021 425.583 378.021 425.124C378.021 424.664 377.93 424.259 377.749 423.909C377.572 423.559 377.296 423.287 376.92 423.093C376.549 422.895 376.071 422.796 375.485 422.796H373.334V433.79H370.987ZM385.081 433.986C384.466 433.986 383.911 433.876 383.418 433.657C382.928 433.433 382.54 433.104 382.254 432.67C381.971 432.236 381.83 431.7 381.83 431.063C381.83 430.515 381.931 430.062 382.134 429.703C382.336 429.345 382.612 429.058 382.962 428.843C383.312 428.628 383.706 428.466 384.145 428.356C384.588 428.242 385.045 428.16 385.518 428.109C386.087 428.05 386.549 427.998 386.903 427.951C387.257 427.901 387.514 427.825 387.675 427.723C387.839 427.618 387.921 427.456 387.921 427.236V427.198C387.921 426.722 387.78 426.353 387.498 426.091C387.215 425.83 386.808 425.699 386.277 425.699C385.716 425.699 385.271 425.822 384.942 426.066C384.617 426.311 384.398 426.6 384.284 426.933L382.146 426.629C382.315 426.039 382.593 425.545 382.981 425.149C383.369 424.748 383.844 424.449 384.404 424.251C384.965 424.048 385.585 423.947 386.264 423.947C386.732 423.947 387.198 424.002 387.662 424.112C388.126 424.221 388.55 424.403 388.933 424.656C389.317 424.904 389.625 425.244 389.857 425.674C390.093 426.104 390.211 426.642 390.211 427.287V433.79H388.01V432.455H387.934C387.795 432.725 387.599 432.978 387.346 433.214C387.097 433.446 386.783 433.634 386.403 433.777C386.028 433.916 385.587 433.986 385.081 433.986ZM385.676 432.303C386.135 432.303 386.534 432.212 386.871 432.031C387.209 431.846 387.468 431.601 387.649 431.297C387.835 430.994 387.928 430.663 387.928 430.304V429.159C387.856 429.218 387.734 429.273 387.561 429.324C387.392 429.374 387.202 429.419 386.991 429.457C386.781 429.495 386.572 429.528 386.365 429.558C386.159 429.587 385.979 429.613 385.828 429.634C385.486 429.68 385.18 429.756 384.91 429.861C384.641 429.967 384.428 430.114 384.272 430.304C384.116 430.49 384.038 430.73 384.038 431.025C384.038 431.447 384.191 431.765 384.499 431.98C384.807 432.196 385.199 432.303 385.676 432.303ZM392.624 433.79V424.074H394.844V425.693H394.945C395.122 425.132 395.426 424.7 395.856 424.396C396.29 424.088 396.786 423.934 397.342 423.934C397.469 423.934 397.61 423.941 397.766 423.953C397.926 423.962 398.059 423.977 398.165 423.998V426.104C398.068 426.07 397.914 426.041 397.703 426.016C397.496 425.986 397.296 425.971 397.102 425.971C396.685 425.971 396.309 426.062 395.976 426.243C395.647 426.42 395.388 426.667 395.198 426.983C395.008 427.3 394.913 427.664 394.913 428.078V433.79H392.624ZM399.796 433.79V424.074H402.086V433.79H399.796ZM400.947 422.695C400.585 422.695 400.273 422.575 400.011 422.334C399.75 422.09 399.619 421.796 399.619 421.455C399.619 421.109 399.75 420.816 400.011 420.576C400.273 420.331 400.585 420.209 400.947 420.209C401.314 420.209 401.626 420.331 401.883 420.576C402.145 420.816 402.276 421.109 402.276 421.455C402.276 421.796 402.145 422.09 401.883 422.334C401.626 422.575 401.314 422.695 400.947 422.695ZM412.23 426.642L410.142 426.869C410.083 426.659 409.98 426.46 409.832 426.275C409.689 426.089 409.495 425.94 409.25 425.826C409.006 425.712 408.706 425.655 408.352 425.655C407.876 425.655 407.475 425.758 407.15 425.965C406.83 426.172 406.672 426.439 406.676 426.768C406.672 427.051 406.775 427.281 406.986 427.458C407.201 427.635 407.555 427.78 408.048 427.894L409.706 428.248C410.625 428.447 411.308 428.761 411.755 429.191C412.206 429.621 412.434 430.184 412.438 430.88C412.434 431.491 412.255 432.031 411.901 432.499C411.551 432.963 411.064 433.326 410.439 433.587C409.815 433.849 409.098 433.979 408.289 433.979C407.1 433.979 406.142 433.731 405.417 433.233C404.692 432.731 404.259 432.033 404.12 431.139L406.353 430.924C406.454 431.363 406.669 431.694 406.998 431.917C407.327 432.141 407.755 432.252 408.282 432.252C408.826 432.252 409.263 432.141 409.592 431.917C409.925 431.694 410.092 431.418 410.092 431.089C410.092 430.81 409.984 430.58 409.769 430.399C409.558 430.218 409.229 430.079 408.782 429.982L407.125 429.634C406.193 429.44 405.504 429.113 405.057 428.653C404.61 428.189 404.388 427.603 404.392 426.895C404.388 426.296 404.55 425.777 404.879 425.339C405.213 424.896 405.674 424.554 406.265 424.314C406.859 424.069 407.545 423.947 408.32 423.947C409.459 423.947 410.355 424.19 411.009 424.675C411.667 425.16 412.074 425.815 412.23 426.642Z" fill="#424242"/>
<path d="M363.033 639.611V626.657H367.992C368.928 626.657 369.706 626.804 370.326 627.1C370.95 627.391 371.416 627.789 371.724 628.295C372.036 628.801 372.192 629.375 372.192 630.016C372.192 630.543 372.091 630.994 371.888 631.369C371.686 631.74 371.414 632.042 371.072 632.274C370.731 632.506 370.349 632.672 369.927 632.774V632.9C370.387 632.925 370.828 633.067 371.249 633.324C371.675 633.577 372.023 633.935 372.293 634.399C372.563 634.863 372.698 635.424 372.698 636.082C372.698 636.752 372.536 637.355 372.211 637.891C371.886 638.422 371.397 638.842 370.743 639.15C370.09 639.457 369.267 639.611 368.276 639.611H363.033ZM365.379 637.65H367.903C368.755 637.65 369.369 637.488 369.744 637.163C370.123 636.834 370.313 636.413 370.313 635.898C370.313 635.515 370.218 635.169 370.029 634.861C369.839 634.549 369.569 634.304 369.219 634.127C368.869 633.946 368.451 633.855 367.966 633.855H365.379V637.65ZM365.379 632.166H367.701C368.106 632.166 368.47 632.092 368.795 631.945C369.12 631.793 369.375 631.58 369.56 631.306C369.75 631.028 369.845 630.699 369.845 630.319C369.845 629.817 369.668 629.404 369.314 629.079C368.964 628.755 368.443 628.592 367.751 628.592H365.379V632.166ZM377.544 639.807C376.928 639.807 376.374 639.698 375.88 639.478C375.391 639.255 375.003 638.926 374.717 638.492C374.434 638.057 374.293 637.522 374.293 636.885C374.293 636.337 374.394 635.884 374.596 635.525C374.799 635.167 375.075 634.88 375.425 634.665C375.775 634.45 376.169 634.287 376.608 634.178C377.051 634.064 377.508 633.982 377.981 633.931C378.55 633.872 379.012 633.819 379.366 633.773C379.72 633.722 379.977 633.646 380.138 633.545C380.302 633.44 380.384 633.277 380.384 633.058V633.02C380.384 632.544 380.243 632.175 379.96 631.913C379.678 631.652 379.271 631.521 378.74 631.521C378.179 631.521 377.734 631.643 377.405 631.888C377.08 632.133 376.861 632.421 376.747 632.755L374.609 632.451C374.778 631.861 375.056 631.367 375.444 630.971C375.832 630.57 376.306 630.271 376.867 630.073C377.428 629.87 378.048 629.769 378.727 629.769C379.195 629.769 379.661 629.824 380.125 629.933C380.589 630.043 381.013 630.224 381.396 630.477C381.78 630.726 382.088 631.066 382.32 631.496C382.556 631.926 382.674 632.464 382.674 633.109V639.611H380.473V638.277H380.397C380.258 638.547 380.062 638.8 379.809 639.036C379.56 639.268 379.246 639.455 378.866 639.599C378.491 639.738 378.05 639.807 377.544 639.807ZM378.139 638.125C378.598 638.125 378.997 638.034 379.334 637.853C379.672 637.667 379.931 637.423 380.112 637.119C380.298 636.815 380.391 636.484 380.391 636.126V634.981C380.319 635.04 380.197 635.095 380.024 635.146C379.855 635.196 379.665 635.24 379.454 635.278C379.244 635.316 379.035 635.35 378.828 635.38C378.622 635.409 378.442 635.434 378.29 635.455C377.949 635.502 377.643 635.578 377.373 635.683C377.103 635.789 376.89 635.936 376.734 636.126C376.578 636.312 376.5 636.552 376.5 636.847C376.5 637.269 376.654 637.587 376.962 637.802C377.27 638.017 377.662 638.125 378.139 638.125ZM385.086 639.611V629.895H387.307V631.515H387.408C387.585 630.954 387.889 630.522 388.319 630.218C388.753 629.91 389.249 629.756 389.805 629.756C389.932 629.756 390.073 629.763 390.229 629.775C390.389 629.784 390.522 629.798 390.628 629.82V631.926C390.531 631.892 390.377 631.863 390.166 631.837C389.959 631.808 389.759 631.793 389.565 631.793C389.147 631.793 388.772 631.884 388.439 632.065C388.11 632.242 387.851 632.489 387.661 632.805C387.471 633.121 387.376 633.486 387.376 633.899V639.611H385.086ZM396.097 639.801C395.127 639.801 394.294 639.588 393.598 639.162C392.907 638.736 392.373 638.148 391.998 637.397C391.627 636.643 391.441 635.774 391.441 634.791C391.441 633.805 391.631 632.934 392.011 632.179C392.39 631.42 392.926 630.829 393.617 630.408C394.313 629.982 395.135 629.769 396.084 629.769C396.873 629.769 397.571 629.914 398.178 630.205C398.789 630.492 399.276 630.899 399.639 631.426C400.002 631.949 400.208 632.561 400.259 633.261H398.07C397.982 632.792 397.771 632.402 397.438 632.09C397.109 631.774 396.668 631.616 396.116 631.616C395.648 631.616 395.237 631.742 394.882 631.995C394.528 632.244 394.252 632.603 394.054 633.071C393.86 633.539 393.763 634.1 393.763 634.753C393.763 635.415 393.86 635.985 394.054 636.461C394.248 636.934 394.52 637.298 394.87 637.556C395.224 637.809 395.639 637.935 396.116 637.935C396.453 637.935 396.755 637.872 397.02 637.745C397.29 637.615 397.516 637.427 397.697 637.182C397.879 636.938 398.003 636.64 398.07 636.29H400.259C400.204 636.978 400.002 637.587 399.652 638.119C399.302 638.646 398.825 639.059 398.222 639.358C397.619 639.653 396.911 639.801 396.097 639.801ZM406.551 639.801C405.576 639.801 404.735 639.599 404.027 639.194C403.322 638.785 402.781 638.207 402.401 637.461C402.022 636.71 401.832 635.827 401.832 634.81C401.832 633.811 402.022 632.934 402.401 632.179C402.785 631.42 403.32 630.829 404.008 630.408C404.695 629.982 405.503 629.769 406.43 629.769C407.029 629.769 407.594 629.866 408.126 630.06C408.661 630.25 409.133 630.545 409.542 630.945C409.956 631.346 410.28 631.856 410.517 632.476C410.753 633.092 410.871 633.826 410.871 634.677V635.38H402.907V633.836H408.676C408.672 633.398 408.577 633.008 408.391 632.666C408.206 632.32 407.946 632.048 407.613 631.85C407.284 631.652 406.901 631.553 406.462 631.553C405.994 631.553 405.583 631.667 405.229 631.894C404.874 632.118 404.598 632.413 404.4 632.78C404.206 633.142 404.107 633.541 404.103 633.975V635.323C404.103 635.888 404.206 636.373 404.413 636.778C404.619 637.178 404.908 637.486 405.279 637.701C405.65 637.912 406.085 638.017 406.582 638.017C406.915 638.017 407.217 637.971 407.487 637.878C407.757 637.781 407.991 637.64 408.189 637.454C408.387 637.269 408.537 637.039 408.638 636.765L410.776 637.005C410.641 637.57 410.384 638.064 410.004 638.485C409.629 638.903 409.148 639.228 408.562 639.46C407.976 639.687 407.305 639.801 406.551 639.801ZM415.208 626.657V639.611H412.918V626.657H415.208ZM421.911 639.801C420.962 639.801 420.139 639.592 419.444 639.175C418.748 638.757 418.208 638.173 417.824 637.423C417.445 636.672 417.255 635.795 417.255 634.791C417.255 633.788 417.445 632.908 417.824 632.154C418.208 631.399 418.748 630.813 419.444 630.395C420.139 629.978 420.962 629.769 421.911 629.769C422.859 629.769 423.682 629.978 424.377 630.395C425.073 630.813 425.611 631.399 425.99 632.154C426.374 632.908 426.566 633.788 426.566 634.791C426.566 635.795 426.374 636.672 425.99 637.423C425.611 638.173 425.073 638.757 424.377 639.175C423.682 639.592 422.859 639.801 421.911 639.801ZM421.923 637.967C422.438 637.967 422.868 637.825 423.214 637.543C423.559 637.256 423.817 636.872 423.985 636.392C424.158 635.911 424.245 635.375 424.245 634.785C424.245 634.19 424.158 633.653 423.985 633.172C423.817 632.687 423.559 632.301 423.214 632.014C422.868 631.728 422.438 631.584 421.923 631.584C421.396 631.584 420.958 631.728 420.607 632.014C420.262 632.301 420.002 632.687 419.829 633.172C419.661 633.653 419.576 634.19 419.576 634.785C419.576 635.375 419.661 635.911 419.829 636.392C420.002 636.872 420.262 637.256 420.607 637.543C420.958 637.825 421.396 637.967 421.923 637.967ZM430.909 633.918V639.611H428.62V629.895H430.808V631.546H430.922C431.146 631.002 431.502 630.57 431.991 630.25C432.484 629.929 433.094 629.769 433.819 629.769C434.49 629.769 435.074 629.912 435.571 630.199C436.073 630.486 436.461 630.901 436.735 631.445C437.013 631.989 437.151 632.649 437.146 633.425V639.611H434.856V633.779C434.856 633.13 434.688 632.622 434.35 632.255C434.017 631.888 433.556 631.705 432.965 631.705C432.565 631.705 432.208 631.793 431.896 631.97C431.588 632.143 431.346 632.394 431.169 632.723C430.996 633.052 430.909 633.45 430.909 633.918ZM442.38 639.807C441.764 639.807 441.21 639.698 440.716 639.478C440.227 639.255 439.839 638.926 439.552 638.492C439.27 638.057 439.129 637.522 439.129 636.885C439.129 636.337 439.23 635.884 439.432 635.525C439.635 635.167 439.911 634.88 440.261 634.665C440.611 634.45 441.005 634.287 441.444 634.178C441.887 634.064 442.344 633.982 442.816 633.931C443.386 633.872 443.847 633.819 444.202 633.773C444.556 633.722 444.813 633.646 444.973 633.545C445.138 633.44 445.22 633.277 445.22 633.058V633.02C445.22 632.544 445.079 632.175 444.796 631.913C444.514 631.652 444.107 631.521 443.575 631.521C443.015 631.521 442.57 631.643 442.241 631.888C441.916 632.133 441.697 632.421 441.583 632.755L439.445 632.451C439.614 631.861 439.892 631.367 440.28 630.971C440.668 630.57 441.142 630.271 441.703 630.073C442.264 629.87 442.884 629.769 443.563 629.769C444.031 629.769 444.497 629.824 444.961 629.933C445.425 630.043 445.848 630.224 446.232 630.477C446.616 630.726 446.924 631.066 447.156 631.496C447.392 631.926 447.51 632.464 447.51 633.109V639.611H445.309V638.277H445.233C445.094 638.547 444.897 638.8 444.644 639.036C444.396 639.268 444.081 639.455 443.702 639.599C443.327 639.738 442.886 639.807 442.38 639.807ZM442.975 638.125C443.434 638.125 443.833 638.034 444.17 637.853C444.507 637.667 444.767 637.423 444.948 637.119C445.134 636.815 445.226 636.484 445.226 636.126V634.981C445.155 635.04 445.032 635.095 444.859 635.146C444.691 635.196 444.501 635.24 444.29 635.278C444.079 635.316 443.871 635.35 443.664 635.38C443.457 635.409 443.278 635.434 443.126 635.455C442.785 635.502 442.479 635.578 442.209 635.683C441.939 635.789 441.726 635.936 441.57 636.126C441.414 636.312 441.336 636.552 441.336 636.847C441.336 637.269 441.49 637.587 441.798 637.802C442.106 638.017 442.498 638.125 442.975 638.125Z" fill="#424242"/>
<path d="M179.33 678.494H182.202L186.048 687.881H186.199L190.045 678.494H192.917V691.448H190.665V682.548H190.545L186.965 691.41H185.282L181.702 682.529H181.582V691.448H179.33V678.494ZM198.277 691.644C197.662 691.644 197.107 691.535 196.614 691.315C196.125 691.092 195.737 690.763 195.45 690.329C195.167 689.894 195.026 689.359 195.026 688.722C195.026 688.174 195.127 687.72 195.33 687.362C195.532 687.004 195.808 686.717 196.158 686.502C196.508 686.287 196.903 686.124 197.341 686.015C197.784 685.901 198.241 685.819 198.714 685.768C199.283 685.709 199.745 685.656 200.099 685.61C200.453 685.559 200.71 685.483 200.871 685.382C201.035 685.277 201.117 685.114 201.117 684.895V684.857C201.117 684.381 200.976 684.012 200.694 683.75C200.411 683.489 200.004 683.358 199.473 683.358C198.912 683.358 198.467 683.48 198.138 683.725C197.813 683.969 197.594 684.258 197.48 684.591L195.342 684.288C195.511 683.697 195.789 683.204 196.177 682.808C196.565 682.407 197.04 682.108 197.6 681.909C198.161 681.707 198.781 681.606 199.46 681.606C199.928 681.606 200.394 681.661 200.858 681.77C201.322 681.88 201.746 682.061 202.129 682.314C202.513 682.563 202.821 682.903 203.053 683.333C203.289 683.763 203.407 684.3 203.407 684.946V691.448H201.206V690.114H201.13C200.991 690.383 200.795 690.636 200.542 690.873C200.293 691.105 199.979 691.292 199.599 691.436C199.224 691.575 198.783 691.644 198.277 691.644ZM198.872 689.962C199.332 689.962 199.73 689.871 200.067 689.69C200.405 689.504 200.664 689.26 200.845 688.956C201.031 688.652 201.124 688.321 201.124 687.963V686.818C201.052 686.877 200.93 686.932 200.757 686.982C200.588 687.033 200.398 687.077 200.188 687.115C199.977 687.153 199.768 687.187 199.561 687.217C199.355 687.246 199.175 687.271 199.024 687.292C198.682 687.339 198.376 687.415 198.106 687.52C197.837 687.626 197.624 687.773 197.468 687.963C197.312 688.148 197.234 688.389 197.234 688.684C197.234 689.106 197.387 689.424 197.695 689.639C198.003 689.854 198.395 689.962 198.872 689.962ZM209.425 691.619C208.662 691.619 207.979 691.423 207.376 691.031C206.773 690.639 206.296 690.069 205.946 689.323C205.596 688.576 205.421 687.67 205.421 686.603C205.421 685.523 205.598 684.613 205.953 683.87C206.311 683.124 206.794 682.561 207.401 682.181C208.008 681.798 208.685 681.606 209.432 681.606C210.001 681.606 210.469 681.703 210.836 681.897C211.203 682.087 211.494 682.316 211.709 682.586C211.924 682.852 212.09 683.103 212.208 683.339H212.303V678.494H214.599V691.448H212.348V689.917H212.208C212.09 690.154 211.92 690.405 211.696 690.67C211.473 690.932 211.177 691.155 210.81 691.341C210.444 691.526 209.982 691.619 209.425 691.619ZM210.064 689.74C210.549 689.74 210.962 689.61 211.304 689.348C211.645 689.083 211.905 688.714 212.082 688.241C212.259 687.769 212.348 687.219 212.348 686.59C212.348 685.962 212.259 685.416 212.082 684.952C211.909 684.488 211.652 684.128 211.31 683.87C210.973 683.613 210.557 683.484 210.064 683.484C209.554 683.484 209.128 683.617 208.786 683.883C208.445 684.149 208.188 684.516 208.015 684.984C207.842 685.452 207.755 685.987 207.755 686.59C207.755 687.198 207.842 687.739 208.015 688.216C208.192 688.688 208.451 689.061 208.793 689.336C209.138 689.605 209.562 689.74 210.064 689.74ZM217.149 691.448V681.732H219.37V683.352H219.471C219.648 682.791 219.952 682.359 220.382 682.055C220.816 681.747 221.312 681.593 221.868 681.593C221.995 681.593 222.136 681.599 222.292 681.612C222.452 681.621 222.585 681.635 222.691 681.656V683.763C222.594 683.729 222.44 683.7 222.229 683.674C222.022 683.645 221.822 683.63 221.628 683.63C221.21 683.63 220.835 683.721 220.502 683.902C220.173 684.079 219.914 684.326 219.724 684.642C219.534 684.958 219.439 685.323 219.439 685.736V691.448H217.149ZM224.322 691.448V681.732H226.612V691.448H224.322ZM225.473 680.353C225.11 680.353 224.798 680.233 224.537 679.993C224.275 679.748 224.145 679.455 224.145 679.114C224.145 678.768 224.275 678.475 224.537 678.234C224.798 677.99 225.11 677.867 225.473 677.867C225.84 677.867 226.152 677.99 226.409 678.234C226.671 678.475 226.801 678.768 226.801 679.114C226.801 679.455 226.671 679.748 226.409 679.993C226.152 680.233 225.84 680.353 225.473 680.353ZM232.682 691.619C231.919 691.619 231.235 691.423 230.632 691.031C230.029 690.639 229.553 690.069 229.203 689.323C228.853 688.576 228.678 687.67 228.678 686.603C228.678 685.523 228.855 684.613 229.209 683.87C229.568 683.124 230.05 682.561 230.658 682.181C231.265 681.798 231.942 681.606 232.688 681.606C233.257 681.606 233.726 681.703 234.092 681.897C234.459 682.087 234.75 682.316 234.965 682.586C235.18 682.852 235.347 683.103 235.465 683.339H235.56V678.494H237.856V691.448H235.604V689.917H235.465C235.347 690.154 235.176 690.405 234.953 690.67C234.729 690.932 234.434 691.155 234.067 691.341C233.7 691.526 233.238 691.619 232.682 691.619ZM233.321 689.74C233.806 689.74 234.219 689.61 234.56 689.348C234.902 689.083 235.161 688.714 235.339 688.241C235.516 687.769 235.604 687.219 235.604 686.59C235.604 685.962 235.516 685.416 235.339 684.952C235.166 684.488 234.908 684.128 234.567 683.87C234.229 683.613 233.814 683.484 233.321 683.484C232.81 683.484 232.385 683.617 232.043 683.883C231.701 684.149 231.444 684.516 231.271 684.984C231.098 685.452 231.012 685.987 231.012 686.59C231.012 687.198 231.098 687.739 231.271 688.216C231.448 688.688 231.708 689.061 232.049 689.336C232.395 689.605 232.819 689.74 233.321 689.74Z" fill="#424242"/>
<path d="M64.4275 660.956V648.002H69.2855C70.2807 648.002 71.1156 648.187 71.7903 648.558C72.4693 648.929 72.9816 649.439 73.3274 650.089C73.6774 650.734 73.8524 651.468 73.8524 652.29C73.8524 653.121 73.6774 653.859 73.3274 654.504C72.9774 655.149 72.4608 655.657 71.7777 656.029C71.0945 656.395 70.2532 656.579 69.2538 656.579H66.0342V654.65H68.9376C69.5195 654.65 69.996 654.548 70.3671 654.346C70.7382 654.144 71.0123 653.865 71.1894 653.511C71.3707 653.157 71.4614 652.75 71.4614 652.29C71.4614 651.831 71.3707 651.426 71.1894 651.076C71.0123 650.726 70.7361 650.454 70.3608 650.26C69.9897 650.062 69.5111 649.962 68.9249 649.962H66.7742V660.956H64.4275ZM79.9985 661.146C79.0497 661.146 78.2274 660.937 77.5316 660.52C76.8358 660.102 76.296 659.518 75.9123 658.767C75.5327 658.017 75.343 657.14 75.343 656.136C75.343 655.132 75.5327 654.253 75.9123 653.498C76.296 652.743 76.8358 652.157 77.5316 651.74C78.2274 651.322 79.0497 651.114 79.9985 651.114C80.9473 651.114 81.7696 651.322 82.4654 651.74C83.1612 652.157 83.6989 652.743 84.0784 653.498C84.4622 654.253 84.654 655.132 84.654 656.136C84.654 657.14 84.4622 658.017 84.0784 658.767C83.6989 659.518 83.1612 660.102 82.4654 660.52C81.7696 660.937 80.9473 661.146 79.9985 661.146ZM80.0112 659.311C80.5256 659.311 80.9558 659.17 81.3016 658.888C81.6473 658.601 81.9046 658.217 82.0733 657.736C82.2462 657.256 82.3326 656.72 82.3326 656.13C82.3326 655.535 82.2462 654.997 82.0733 654.517C81.9046 654.032 81.6473 653.646 81.3016 653.359C80.9558 653.072 80.5256 652.929 80.0112 652.929C79.484 652.929 79.0455 653.072 78.6955 653.359C78.3497 653.646 78.0903 654.032 77.9174 654.517C77.7487 654.997 77.6644 655.535 77.6644 656.13C77.6644 656.72 77.7487 657.256 77.9174 657.736C78.0903 658.217 78.3497 658.601 78.6955 658.888C79.0455 659.17 79.484 659.311 80.0112 659.311ZM86.7075 660.956V651.24H88.9278V652.859H89.029C89.2061 652.299 89.5097 651.866 89.9399 651.563C90.3742 651.255 90.8697 651.101 91.4263 651.101C91.5528 651.101 91.6941 651.107 91.8501 651.12C92.0104 651.128 92.1432 651.143 92.2486 651.164V653.271C92.1517 653.237 91.9977 653.207 91.7869 653.182C91.5803 653.153 91.3799 653.138 91.186 653.138C90.7685 653.138 90.3932 653.228 90.06 653.41C89.7311 653.587 89.4718 653.834 89.282 654.15C89.0922 654.466 88.9974 654.831 88.9974 655.244V660.956H86.7075ZM99.2534 651.24V653.011H93.668V651.24H99.2534ZM95.047 648.912H97.3368V658.034C97.3368 658.342 97.3832 658.578 97.4759 658.742C97.5729 658.902 97.6994 659.012 97.8555 659.071C98.0115 659.13 98.1844 659.16 98.3742 659.16C98.5175 659.16 98.6483 659.149 98.7663 659.128C98.8886 659.107 98.9814 659.088 99.0447 659.071L99.4305 660.861C99.3082 660.903 99.1332 660.95 98.9055 661C98.682 661.051 98.4079 661.08 98.0832 661.089C97.5097 661.106 96.9931 661.019 96.5335 660.83C96.0738 660.636 95.709 660.336 95.4391 659.931C95.1735 659.527 95.0428 659.02 95.047 658.413V648.912ZM105.412 661.146C104.463 661.146 103.641 660.937 102.945 660.52C102.249 660.102 101.71 659.518 101.326 658.767C100.946 658.017 100.757 657.14 100.757 656.136C100.757 655.132 100.946 654.253 101.326 653.498C101.71 652.743 102.249 652.157 102.945 651.74C103.641 651.322 104.463 651.114 105.412 651.114C106.361 651.114 107.183 651.322 107.879 651.74C108.575 652.157 109.113 652.743 109.492 653.498C109.876 654.253 110.068 655.132 110.068 656.136C110.068 657.14 109.876 658.017 109.492 658.767C109.113 659.518 108.575 660.102 107.879 660.52C107.183 660.937 106.361 661.146 105.412 661.146ZM105.425 659.311C105.939 659.311 106.369 659.17 106.715 658.888C107.061 658.601 107.318 658.217 107.487 657.736C107.66 657.256 107.746 656.72 107.746 656.13C107.746 655.535 107.66 654.997 107.487 654.517C107.318 654.032 107.061 653.646 106.715 653.359C106.369 653.072 105.939 652.929 105.425 652.929C104.898 652.929 104.459 653.072 104.109 653.359C103.763 653.646 103.504 654.032 103.331 654.517C103.162 654.997 103.078 655.535 103.078 656.13C103.078 656.72 103.162 657.256 103.331 657.736C103.504 658.217 103.763 658.601 104.109 658.888C104.459 659.17 104.898 659.311 105.425 659.311Z" fill="#424242"/>
<path d="M33.1595 735.662V722.707H35.5062V733.694H41.2118V735.662H33.1595ZM43.2574 735.662V725.946H45.5472V735.662H43.2574ZM44.4086 724.567C44.0459 724.567 43.7339 724.447 43.4724 724.206C43.211 723.962 43.0802 723.669 43.0802 723.327C43.0802 722.981 43.211 722.688 43.4724 722.448C43.7339 722.203 44.0459 722.081 44.4086 722.081C44.7755 722.081 45.0875 722.203 45.3448 722.448C45.6062 722.688 45.7369 722.981 45.7369 723.327C45.7369 723.669 45.6062 723.962 45.3448 724.206C45.0875 724.447 44.7755 724.567 44.4086 724.567ZM55.6909 728.514L53.6035 728.742C53.5445 728.531 53.4412 728.333 53.2936 728.147C53.1502 727.961 52.9562 727.812 52.7116 727.698C52.4671 727.584 52.1677 727.527 51.8134 727.527C51.3369 727.527 50.9363 727.63 50.6116 727.837C50.2911 728.044 50.133 728.311 50.1372 728.64C50.133 728.923 50.2363 729.153 50.4471 729.33C50.6622 729.507 51.0164 729.652 51.5098 729.766L53.1671 730.121C54.0864 730.319 54.7695 730.633 55.2165 731.063C55.6677 731.493 55.8955 732.056 55.8997 732.752C55.8955 733.363 55.7162 733.903 55.362 734.371C55.012 734.835 54.5249 735.198 53.9008 735.459C53.2767 735.721 52.5598 735.851 51.7502 735.851C50.561 735.851 49.6037 735.603 48.8784 735.105C48.1531 734.603 47.7209 733.905 47.5817 733.011L49.8146 732.796C49.9158 733.235 50.1309 733.566 50.4598 733.789C50.7887 734.013 51.2167 734.125 51.7438 734.125C52.2878 734.125 52.7243 734.013 53.0532 733.789C53.3864 733.566 53.5529 733.29 53.5529 732.961C53.5529 732.682 53.4454 732.453 53.2303 732.271C53.0195 732.09 52.6906 731.951 52.2436 731.854L50.5863 731.506C49.6543 731.312 48.9649 730.985 48.5179 730.525C48.0709 730.061 47.8495 729.475 47.8537 728.767C47.8495 728.168 48.0118 727.649 48.3407 727.211C48.6739 726.768 49.1356 726.426 49.726 726.186C50.3206 725.941 51.0059 725.819 51.7818 725.819C52.9204 725.819 53.8165 726.062 54.4701 726.547C55.128 727.032 55.5349 727.687 55.6909 728.514ZM57.999 735.662V722.707H60.2889V727.552H60.3837C60.5018 727.316 60.6684 727.065 60.8834 726.8C61.0985 726.53 61.3895 726.3 61.7564 726.11C62.1232 725.916 62.5913 725.819 63.1606 725.819C63.9112 725.819 64.5881 726.011 65.1911 726.395C65.7983 726.774 66.2791 727.337 66.6333 728.084C66.9917 728.826 67.171 729.737 67.171 730.816C67.171 731.883 66.9959 732.79 66.6459 733.536C66.2959 734.283 65.8194 734.852 65.2164 735.244C64.6134 735.636 63.9302 735.832 63.1669 735.832C62.6103 735.832 62.1485 735.74 61.7817 735.554C61.4148 735.369 61.1196 735.145 60.8961 734.884C60.6768 734.618 60.506 734.367 60.3837 734.131H60.2509V735.662H57.999ZM60.2446 730.804C60.2446 731.432 60.3331 731.982 60.5102 732.455C60.6916 732.927 60.9509 733.296 61.2883 733.562C61.6298 733.823 62.0431 733.954 62.5281 733.954C63.0341 733.954 63.4579 733.819 63.7995 733.549C64.1411 733.275 64.3983 732.902 64.5712 732.429C64.7483 731.953 64.8369 731.411 64.8369 730.804C64.8369 730.201 64.7504 729.665 64.5775 729.197C64.4046 728.729 64.1474 728.362 63.8058 728.096C63.4642 727.831 63.0383 727.698 62.5281 727.698C62.0389 727.698 61.6235 727.826 61.2819 728.084C60.9404 728.341 60.681 728.702 60.5039 729.165C60.331 729.629 60.2446 730.175 60.2446 730.804ZM73.4657 735.851C72.5169 735.851 71.6945 735.643 70.9987 735.225C70.3029 734.808 69.7632 734.224 69.3794 733.473C68.9999 732.722 68.8101 731.845 68.8101 730.842C68.8101 729.838 68.9999 728.959 69.3794 728.204C69.7632 727.449 70.3029 726.863 70.9987 726.445C71.6945 726.028 72.5169 725.819 73.4657 725.819C74.4145 725.819 75.2368 726.028 75.9326 726.445C76.6284 726.863 77.1661 727.449 77.5456 728.204C77.9293 728.959 78.1212 729.838 78.1212 730.842C78.1212 731.845 77.9293 732.722 77.5456 733.473C77.1661 734.224 76.6284 734.808 75.9326 735.225C75.2368 735.643 74.4145 735.851 73.4657 735.851ZM73.4783 734.017C73.9928 734.017 74.4229 733.876 74.7687 733.593C75.1145 733.306 75.3717 732.923 75.5404 732.442C75.7133 731.961 75.7998 731.426 75.7998 730.835C75.7998 730.241 75.7133 729.703 75.5404 729.222C75.3717 728.737 75.1145 728.351 74.7687 728.065C74.4229 727.778 73.9928 727.635 73.4783 727.635C72.9512 727.635 72.5126 727.778 72.1626 728.065C71.8168 728.351 71.5575 728.737 71.3846 729.222C71.2159 729.703 71.1316 730.241 71.1316 730.835C71.1316 731.426 71.2159 731.961 71.3846 732.442C71.5575 732.923 71.8168 733.306 72.1626 733.593C72.5126 733.876 72.9512 734.017 73.4783 734.017ZM82.4645 729.969V735.662H80.1747V725.946H82.3633V727.597H82.4772C82.7007 727.053 83.057 726.62 83.5462 726.3C84.0396 725.979 84.6489 725.819 85.3742 725.819C86.0447 725.819 86.6288 725.963 87.1264 726.249C87.6282 726.536 88.0162 726.951 88.2903 727.495C88.5686 728.039 88.7056 728.699 88.7014 729.475V735.662H86.4116V729.83C86.4116 729.18 86.2429 728.672 85.9056 728.305C85.5724 727.938 85.1107 727.755 84.5203 727.755C84.1197 727.755 83.7634 727.843 83.4513 728.02C83.1435 728.193 82.901 728.444 82.7239 728.773C82.551 729.102 82.4645 729.501 82.4645 729.969Z" fill="#424242"/>
<path d="M479.184 229.066H476.679L481.239 216.112H484.136L488.703 229.066H486.198L482.738 218.769H482.637L479.184 229.066ZM479.266 223.987H486.097V225.872H479.266V223.987ZM490.418 229.066V219.35H492.607V221.001H492.721C492.923 220.445 493.259 220.01 493.727 219.698C494.195 219.382 494.753 219.224 495.403 219.224C496.061 219.224 496.615 219.384 497.066 219.705C497.522 220.021 497.842 220.453 498.028 221.001H498.129C498.344 220.462 498.707 220.032 499.217 219.711C499.732 219.386 500.341 219.224 501.045 219.224C501.939 219.224 502.669 219.507 503.234 220.072C503.799 220.637 504.081 221.461 504.081 222.545V229.066H501.785V222.899C501.785 222.296 501.625 221.855 501.305 221.577C500.984 221.295 500.592 221.153 500.128 221.153C499.576 221.153 499.143 221.326 498.831 221.672C498.523 222.014 498.37 222.458 498.37 223.007V229.066H496.124V222.804C496.124 222.302 495.972 221.902 495.669 221.602C495.369 221.303 494.977 221.153 494.492 221.153C494.163 221.153 493.864 221.238 493.594 221.406C493.324 221.571 493.109 221.805 492.949 222.108C492.788 222.408 492.708 222.758 492.708 223.158V229.066H490.418ZM514.194 221.919L512.106 222.146C512.047 221.936 511.944 221.737 511.796 221.552C511.653 221.366 511.459 221.217 511.214 221.103C510.97 220.989 510.67 220.932 510.316 220.932C509.84 220.932 509.439 221.035 509.114 221.242C508.794 221.448 508.636 221.716 508.64 222.045C508.636 222.328 508.739 222.558 508.95 222.735C509.165 222.912 509.519 223.057 510.012 223.171L511.67 223.525C512.589 223.723 513.272 224.038 513.719 224.468C514.17 224.898 514.398 225.461 514.402 226.157C514.398 226.768 514.219 227.308 513.865 227.776C513.515 228.24 513.028 228.603 512.403 228.864C511.779 229.125 511.062 229.256 510.253 229.256C509.064 229.256 508.106 229.007 507.381 228.51C506.656 228.008 506.223 227.31 506.084 226.416L508.317 226.201C508.418 226.64 508.633 226.971 508.962 227.194C509.291 227.418 509.719 227.529 510.246 227.529C510.79 227.529 511.227 227.418 511.556 227.194C511.889 226.971 512.056 226.694 512.056 226.365C512.056 226.087 511.948 225.857 511.733 225.676C511.522 225.495 511.193 225.355 510.746 225.258L509.089 224.911C508.157 224.717 507.467 224.39 507.02 223.93C506.573 223.466 506.352 222.88 506.356 222.172C506.352 221.573 506.514 221.054 506.843 220.616C507.177 220.173 507.638 219.831 508.229 219.591C508.823 219.346 509.509 219.224 510.284 219.224C511.423 219.224 512.319 219.466 512.973 219.951C513.631 220.436 514.038 221.092 514.194 221.919ZM521.252 219.35V221.122H515.667V219.35H521.252ZM517.046 217.023H519.335V226.144C519.335 226.452 519.382 226.688 519.475 226.852C519.572 227.013 519.698 227.122 519.854 227.181C520.01 227.24 520.183 227.27 520.373 227.27C520.516 227.27 520.647 227.259 520.765 227.238C520.887 227.217 520.98 227.198 521.043 227.181L521.429 228.972C521.307 229.014 521.132 229.06 520.904 229.111C520.681 229.161 520.407 229.191 520.082 229.199C519.508 229.216 518.992 229.13 518.532 228.94C518.072 228.746 517.708 228.447 517.438 228.042C517.172 227.637 517.041 227.131 517.046 226.524V217.023ZM527.474 229.256C526.5 229.256 525.659 229.054 524.95 228.649C524.246 228.24 523.704 227.662 523.325 226.916C522.945 226.165 522.755 225.282 522.755 224.265C522.755 223.266 522.945 222.389 523.325 221.634C523.708 220.875 524.244 220.285 524.931 219.863C525.619 219.437 526.426 219.224 527.354 219.224C527.953 219.224 528.518 219.321 529.049 219.515C529.585 219.705 530.057 220 530.466 220.401C530.879 220.801 531.204 221.311 531.44 221.931C531.676 222.547 531.794 223.281 531.794 224.133V224.835H523.831V223.291H529.599C529.595 222.853 529.5 222.463 529.315 222.121C529.129 221.775 528.87 221.503 528.537 221.305C528.208 221.107 527.824 221.008 527.386 221.008C526.917 221.008 526.506 221.122 526.152 221.349C525.798 221.573 525.522 221.868 525.323 222.235C525.129 222.598 525.03 222.996 525.026 223.43V224.778C525.026 225.343 525.129 225.828 525.336 226.233C525.543 226.633 525.832 226.941 526.203 227.156C526.574 227.367 527.008 227.472 527.506 227.472C527.839 227.472 528.14 227.426 528.41 227.333C528.68 227.236 528.914 227.095 529.112 226.909C529.311 226.724 529.46 226.494 529.561 226.22L531.699 226.46C531.565 227.025 531.307 227.519 530.928 227.94C530.552 228.358 530.072 228.683 529.486 228.915C528.899 229.142 528.229 229.256 527.474 229.256ZM533.842 229.066V219.35H536.062V220.97H536.163C536.34 220.409 536.644 219.977 537.074 219.673C537.508 219.365 538.004 219.211 538.56 219.211C538.687 219.211 538.828 219.218 538.984 219.23C539.144 219.239 539.277 219.254 539.383 219.275V221.381C539.286 221.347 539.132 221.318 538.921 221.292C538.714 221.263 538.514 221.248 538.32 221.248C537.902 221.248 537.527 221.339 537.194 221.52C536.865 221.697 536.606 221.944 536.416 222.26C536.226 222.576 536.131 222.941 536.131 223.355V229.066H533.842ZM544.219 229.237C543.456 229.237 542.773 229.041 542.17 228.649C541.567 228.257 541.09 227.687 540.74 226.941C540.39 226.195 540.215 225.288 540.215 224.221C540.215 223.142 540.392 222.231 540.747 221.489C541.105 220.742 541.588 220.179 542.195 219.8C542.802 219.416 543.479 219.224 544.226 219.224C544.795 219.224 545.263 219.321 545.63 219.515C545.997 219.705 546.288 219.935 546.503 220.204C546.718 220.47 546.884 220.721 547.003 220.957H547.097V216.112H549.394V229.066H547.142V227.536H547.003C546.884 227.772 546.714 228.023 546.49 228.288C546.267 228.55 545.971 228.773 545.605 228.959C545.238 229.144 544.776 229.237 544.219 229.237ZM544.858 227.359C545.343 227.359 545.756 227.228 546.098 226.966C546.44 226.701 546.699 226.332 546.876 225.859C547.053 225.387 547.142 224.837 547.142 224.208C547.142 223.58 547.053 223.034 546.876 222.57C546.703 222.106 546.446 221.746 546.104 221.489C545.767 221.231 545.352 221.103 544.858 221.103C544.348 221.103 543.922 221.235 543.58 221.501C543.239 221.767 542.982 222.134 542.809 222.602C542.636 223.07 542.549 223.605 542.549 224.208C542.549 224.816 542.636 225.358 542.809 225.834C542.986 226.306 543.245 226.68 543.587 226.954C543.933 227.224 544.356 227.359 544.858 227.359ZM554.739 229.262C554.124 229.262 553.569 229.153 553.076 228.934C552.587 228.71 552.199 228.381 551.912 227.947C551.629 227.512 551.488 226.977 551.488 226.34C551.488 225.792 551.589 225.339 551.792 224.98C551.994 224.622 552.27 224.335 552.62 224.12C552.97 223.905 553.365 223.742 553.803 223.633C554.246 223.519 554.704 223.437 555.176 223.386C555.745 223.327 556.207 223.274 556.561 223.228C556.915 223.177 557.173 223.101 557.333 223C557.497 222.895 557.58 222.733 557.58 222.513V222.475C557.58 221.999 557.438 221.63 557.156 221.368C556.873 221.107 556.466 220.976 555.935 220.976C555.374 220.976 554.929 221.098 554.6 221.343C554.276 221.588 554.056 221.876 553.942 222.21L551.804 221.906C551.973 221.316 552.251 220.822 552.639 220.426C553.027 220.025 553.502 219.726 554.063 219.528C554.623 219.325 555.243 219.224 555.922 219.224C556.39 219.224 556.856 219.279 557.32 219.388C557.784 219.498 558.208 219.679 558.592 219.932C558.975 220.181 559.283 220.521 559.515 220.951C559.751 221.381 559.869 221.919 559.869 222.564V229.066H557.668V227.732H557.592C557.453 228.002 557.257 228.255 557.004 228.491C556.755 228.723 556.441 228.91 556.061 229.054C555.686 229.193 555.245 229.262 554.739 229.262ZM555.334 227.58C555.794 227.58 556.192 227.489 556.53 227.308C556.867 227.122 557.126 226.878 557.308 226.574C557.493 226.271 557.586 225.94 557.586 225.581V224.436C557.514 224.495 557.392 224.55 557.219 224.601C557.05 224.651 556.861 224.696 556.65 224.733C556.439 224.771 556.23 224.805 556.024 224.835C555.817 224.864 555.638 224.889 555.486 224.911C555.144 224.957 554.839 225.033 554.569 225.138C554.299 225.244 554.086 225.391 553.93 225.581C553.774 225.767 553.696 226.007 553.696 226.302C553.696 226.724 553.85 227.042 554.158 227.257C554.465 227.472 554.858 227.58 555.334 227.58ZM562.282 229.066V219.35H564.47V221.001H564.584C564.787 220.445 565.122 220.01 565.59 219.698C566.058 219.382 566.617 219.224 567.266 219.224C567.924 219.224 568.479 219.384 568.93 219.705C569.385 220.021 569.706 220.453 569.891 221.001H569.993C570.208 220.462 570.57 220.032 571.081 219.711C571.595 219.386 572.204 219.224 572.909 219.224C573.803 219.224 574.532 219.507 575.097 220.072C575.662 220.637 575.945 221.461 575.945 222.545V229.066H573.649V222.899C573.649 222.296 573.488 221.855 573.168 221.577C572.847 221.295 572.455 221.153 571.991 221.153C571.439 221.153 571.007 221.326 570.695 221.672C570.387 222.014 570.233 222.458 570.233 223.007V229.066H567.987V222.804C567.987 222.302 567.836 221.902 567.532 221.602C567.233 221.303 566.84 221.153 566.355 221.153C566.027 221.153 565.727 221.238 565.457 221.406C565.187 221.571 564.972 221.805 564.812 222.108C564.652 222.408 564.572 222.758 564.572 223.158V229.066H562.282Z" fill="#424242"/>
<path d="M308.957 269.132V256.177H311.304V267.165H317.01V269.132H308.957ZM323.293 269.322C322.345 269.322 321.522 269.113 320.826 268.695C320.131 268.278 319.591 267.694 319.207 266.943C318.828 266.193 318.638 265.315 318.638 264.312C318.638 263.308 318.828 262.429 319.207 261.674C319.591 260.919 320.131 260.333 320.826 259.916C321.522 259.498 322.345 259.289 323.293 259.289C324.242 259.289 325.065 259.498 325.76 259.916C326.456 260.333 326.994 260.919 327.373 261.674C327.757 262.429 327.949 263.308 327.949 264.312C327.949 265.315 327.757 266.193 327.373 266.943C326.994 267.694 326.456 268.278 325.76 268.695C325.065 269.113 324.242 269.322 323.293 269.322ZM323.306 267.487C323.821 267.487 324.251 267.346 324.596 267.063C324.942 266.777 325.199 266.393 325.368 265.912C325.541 265.431 325.627 264.896 325.627 264.306C325.627 263.711 325.541 263.173 325.368 262.693C325.199 262.208 324.942 261.822 324.596 261.535C324.251 261.248 323.821 261.105 323.306 261.105C322.779 261.105 322.34 261.248 321.99 261.535C321.645 261.822 321.385 262.208 321.212 262.693C321.044 263.173 320.959 263.711 320.959 264.306C320.959 264.896 321.044 265.431 321.212 265.912C321.385 266.393 321.645 266.777 321.99 267.063C322.34 267.346 322.779 267.487 323.306 267.487ZM332.292 263.439V269.132H330.002V259.416H332.191V261.067H332.305C332.528 260.523 332.885 260.091 333.374 259.77C333.867 259.45 334.477 259.289 335.202 259.289C335.872 259.289 336.457 259.433 336.954 259.72C337.456 260.006 337.844 260.422 338.118 260.966C338.396 261.51 338.533 262.17 338.529 262.946V269.132H336.239V263.3C336.239 262.65 336.071 262.142 335.733 261.775C335.4 261.408 334.938 261.225 334.348 261.225C333.947 261.225 333.591 261.314 333.279 261.491C332.971 261.664 332.729 261.914 332.552 262.243C332.379 262.572 332.292 262.971 332.292 263.439ZM344.572 269.303C343.809 269.303 343.126 269.107 342.523 268.714C341.92 268.322 341.443 267.753 341.093 267.006C340.743 266.26 340.568 265.353 340.568 264.287C340.568 263.207 340.746 262.296 341.1 261.554C341.458 260.808 341.941 260.245 342.548 259.865C343.156 259.481 343.832 259.289 344.579 259.289C345.148 259.289 345.616 259.386 345.983 259.58C346.35 259.77 346.641 260 346.856 260.27C347.071 260.536 347.238 260.786 347.356 261.023H347.451V256.177H349.747V269.132H347.495V267.601H347.356C347.238 267.837 347.067 268.088 346.843 268.354C346.62 268.615 346.325 268.839 345.958 269.024C345.591 269.21 345.129 269.303 344.572 269.303ZM345.211 267.424C345.696 267.424 346.11 267.293 346.451 267.032C346.793 266.766 347.052 266.397 347.229 265.925C347.406 265.453 347.495 264.902 347.495 264.274C347.495 263.646 347.406 263.099 347.229 262.636C347.056 262.172 346.799 261.811 346.457 261.554C346.12 261.297 345.705 261.168 345.211 261.168C344.701 261.168 344.275 261.301 343.934 261.567C343.592 261.832 343.335 262.199 343.162 262.667C342.989 263.135 342.903 263.671 342.903 264.274C342.903 264.881 342.989 265.423 343.162 265.9C343.339 266.372 343.598 266.745 343.94 267.019C344.286 267.289 344.709 267.424 345.211 267.424ZM356.535 269.322C355.586 269.322 354.764 269.113 354.068 268.695C353.372 268.278 352.832 267.694 352.449 266.943C352.069 266.193 351.879 265.315 351.879 264.312C351.879 263.308 352.069 262.429 352.449 261.674C352.832 260.919 353.372 260.333 354.068 259.916C354.764 259.498 355.586 259.289 356.535 259.289C357.484 259.289 358.306 259.498 359.002 259.916C359.697 260.333 360.235 260.919 360.615 261.674C360.998 262.429 361.19 263.308 361.19 264.312C361.19 265.315 360.998 266.193 360.615 266.943C360.235 267.694 359.697 268.278 359.002 268.695C358.306 269.113 357.484 269.322 356.535 269.322ZM356.547 267.487C357.062 267.487 357.492 267.346 357.838 267.063C358.184 266.777 358.441 266.393 358.61 265.912C358.782 265.431 358.869 264.896 358.869 264.306C358.869 263.711 358.782 263.173 358.61 262.693C358.441 262.208 358.184 261.822 357.838 261.535C357.492 261.248 357.062 261.105 356.547 261.105C356.02 261.105 355.582 261.248 355.232 261.535C354.886 261.822 354.627 262.208 354.454 262.693C354.285 263.173 354.201 263.711 354.201 264.306C354.201 264.896 354.285 265.431 354.454 265.912C354.627 266.393 354.886 266.777 355.232 267.063C355.582 267.346 356.02 267.487 356.547 267.487ZM365.534 263.439V269.132H363.244V259.416H365.432V261.067H365.546C365.77 260.523 366.126 260.091 366.615 259.77C367.109 259.45 367.718 259.289 368.443 259.289C369.114 259.289 369.698 259.433 370.195 259.72C370.697 260.006 371.085 260.422 371.359 260.966C371.638 261.51 371.775 262.17 371.771 262.946V269.132H369.481V263.3C369.481 262.65 369.312 262.142 368.975 261.775C368.642 261.408 368.18 261.225 367.589 261.225C367.189 261.225 366.832 261.314 366.52 261.491C366.213 261.664 365.97 261.914 365.793 262.243C365.62 262.572 365.534 262.971 365.534 263.439Z" fill="#424242"/>
</svg>
