<svg width="1706" height="163" viewBox="0 0 1706 163" fill="none" xmlns="http://www.w3.org/2000/svg">
<g clip-path="url(#clip0_230_2885)" filter="url(#filter0_i_230_2885)">
<g opacity="0.2">
<path d="M37.0334 192.321V31.7042H-19.5625V3.27522H127.167V31.7042H70.7026V192.321H37.0334Z" fill="black"/>
<path d="M225.356 195.596C170.07 195.596 135.615 157.997 135.615 97.8637V97.6016C135.615 37.5996 170.332 0 225.356 0C280.511 0 314.966 37.5996 314.966 97.6016V97.8637C314.966 157.997 280.642 195.596 225.356 195.596ZM225.356 166.25C259.549 166.25 280.642 139.525 280.642 97.8637V97.6016C280.642 55.6788 259.156 29.346 225.356 29.346C191.687 29.346 170.07 55.5478 170.07 97.6016V97.8637C170.07 139.918 191.556 166.25 225.356 166.25Z" fill="black"/>
<path d="M422.456 195.596C374.507 195.596 344.637 167.429 344.637 125.638V3.27522H378.437V122.886C378.437 149.088 394.42 166.25 422.456 166.25C450.492 166.25 466.344 149.088 466.344 122.886V3.27522H500.014V125.638C500.014 167.429 470.537 195.596 422.456 195.596Z" fill="black"/>
<path d="M618.509 195.596C564.14 195.596 529.816 158.128 529.816 97.7327V97.6016C529.816 37.2065 564.271 0 618.509 0C662.004 0 693.97 27.1188 698.948 65.6355L699.079 66.9456H665.934L665.279 64.4564C659.776 42.8399 643.138 29.346 618.509 29.346C585.494 29.346 564.402 55.6788 564.402 97.6016V97.7327C564.402 139.787 585.625 166.25 618.509 166.25C642.614 166.25 659.514 153.28 665.672 129.961L666.065 128.651H699.21L698.948 129.961C694.101 168.739 662.004 195.596 618.509 195.596Z" fill="black"/>
<path d="M727.571 192.321V3.27522H761.371V81.8806H853.339V3.27522H887.009V192.321H853.339V110.31H761.371V192.321H727.571Z" fill="black"/>
<path d="M923.099 192.321V3.27522H992.141C1048.47 3.27522 1082.01 37.3375 1082.01 97.0776V97.3396C1082.01 157.211 1048.74 192.321 992.141 192.321H923.099ZM956.899 163.761H988.604C1026.6 163.761 1047.56 140.573 1047.56 97.4706V97.2086C1047.56 55.0237 1026.2 31.8352 988.604 31.8352H956.899V163.761Z" fill="black"/>
<path d="M1194.87 195.596C1139.59 195.596 1105.13 157.997 1105.13 97.8637V97.6016C1105.13 37.5996 1139.85 0 1194.87 0C1250.03 0 1284.48 37.5996 1284.48 97.6016V97.8637C1284.48 157.997 1250.16 195.596 1194.87 195.596ZM1194.87 166.25C1229.07 166.25 1250.16 139.525 1250.16 97.8637V97.6016C1250.16 55.6788 1228.67 29.346 1194.87 29.346C1161.21 29.346 1139.59 55.5478 1139.59 97.6016V97.8637C1139.59 139.918 1161.07 166.25 1194.87 166.25Z" fill="black"/>
<path d="M1347.3 192.321L1296.6 3.27522H1331.71L1364.59 145.944H1365.25L1403.11 3.27522H1433.77L1471.63 145.944H1472.28L1505.17 3.27522H1540.28L1489.58 192.321H1456.96L1418.83 56.7269H1418.05L1379.92 192.321H1347.3Z" fill="black"/>
<path d="M1565.23 192.321V3.27522H1595.63L1687.72 135.725H1688.51V3.27522H1722.05V192.321H1691.92L1599.56 59.347H1598.9V192.321H1565.23Z" fill="black"/>
</g>
</g>
<defs>
<filter id="filter0_i_230_2885" x="0.609375" y="0" width="1705" height="167" filterUnits="userSpaceOnUse" color-interpolation-filters="sRGB">
<feFlood flood-opacity="0" result="BackgroundImageFix"/>
<feBlend mode="normal" in="SourceGraphic" in2="BackgroundImageFix" result="shape"/>
<feColorMatrix in="SourceAlpha" type="matrix" values="0 0 0 0 0 0 0 0 0 0 0 0 0 0 0 0 0 0 127 0" result="hardAlpha"/>
<feOffset dy="4"/>
<feGaussianBlur stdDeviation="2"/>
<feComposite in2="hardAlpha" operator="arithmetic" k2="-1" k3="1"/>
<feColorMatrix type="matrix" values="0 0 0 0 0 0 0 0 0 0 0 0 0 0 0 0 0 0 0.25 0"/>
<feBlend mode="normal" in2="shape" result="effect1_innerShadow_230_2885"/>
</filter>
<clipPath id="clip0_230_2885">
<rect width="1705" height="163" fill="white" transform="translate(0.609375)"/>
</clipPath>
</defs>
</svg>
