<svg width="148" height="18" viewBox="0 0 148 18" fill="none" xmlns="http://www.w3.org/2000/svg">
<path d="M5.39062 17V3.23145H0.539062V0.794434H13.1172V3.23145H8.27686V17H5.39062Z" fill="black"/>
<path d="M21.3042 17.2808C16.5649 17.2808 13.6113 14.0576 13.6113 8.90283V8.88037C13.6113 3.73682 16.5874 0.513672 21.3042 0.513672C26.0322 0.513672 28.9858 3.73682 28.9858 8.88037V8.90283C28.9858 14.0576 26.0435 17.2808 21.3042 17.2808ZM21.3042 14.7651C24.2354 14.7651 26.0435 12.4741 26.0435 8.90283V8.88037C26.0435 5.28662 24.2017 3.0293 21.3042 3.0293C18.418 3.0293 16.5649 5.27539 16.5649 8.88037V8.90283C16.5649 12.5078 18.4067 14.7651 21.3042 14.7651Z" fill="black"/>
<path d="M37.9702 17.2808C33.8599 17.2808 31.2993 14.8662 31.2993 11.2837V0.794434H34.1968V11.0479C34.1968 13.2939 35.5669 14.7651 37.9702 14.7651C40.3735 14.7651 41.7324 13.2939 41.7324 11.0479V0.794434H44.6187V11.2837C44.6187 14.8662 42.0918 17.2808 37.9702 17.2808Z" fill="black"/>
<path d="M54.5464 17.2808C49.8857 17.2808 46.9434 14.0688 46.9434 8.8916V8.88037C46.9434 3.70312 49.897 0.513672 54.5464 0.513672C58.2749 0.513672 61.0151 2.83838 61.4419 6.14014L61.4531 6.25244H58.6118L58.5557 6.03906C58.084 4.18604 56.6577 3.0293 54.5464 3.0293C51.7163 3.0293 49.9082 5.28662 49.9082 8.88037V8.8916C49.9082 12.4966 51.7275 14.7651 54.5464 14.7651C56.6128 14.7651 58.0615 13.6533 58.5894 11.6543L58.623 11.542H61.4644L61.4419 11.6543C61.0264 14.9785 58.2749 17.2808 54.5464 17.2808Z" fill="black"/>
<path d="M63.6655 17V0.794434H66.563V7.53271H74.4468V0.794434H77.333V17H74.4468V9.96973H66.563V17H63.6655Z" fill="black"/>
<path d="M80.1968 17V0.794434H86.1152C90.9443 0.794434 93.8193 3.71436 93.8193 8.83545V8.85791C93.8193 13.9902 90.9668 17 86.1152 17H80.1968ZM83.0942 14.5518H85.812C89.0688 14.5518 90.8657 12.564 90.8657 8.86914V8.84668C90.8657 5.23047 89.0352 3.24268 85.812 3.24268H83.0942V14.5518Z" fill="black"/>
<path d="M103.264 17.2808C98.5249 17.2808 95.5713 14.0576 95.5713 8.90283V8.88037C95.5713 3.73682 98.5474 0.513672 103.264 0.513672C107.992 0.513672 110.946 3.73682 110.946 8.88037V8.90283C110.946 14.0576 108.003 17.2808 103.264 17.2808ZM103.264 14.7651C106.195 14.7651 108.003 12.4741 108.003 8.90283V8.88037C108.003 5.28662 106.162 3.0293 103.264 3.0293C100.378 3.0293 98.5249 5.27539 98.5249 8.88037V8.90283C98.5249 12.5078 100.367 14.7651 103.264 14.7651Z" fill="black"/>
<path d="M116.101 17L111.754 0.794434H114.764L117.583 13.0244H117.639L120.885 0.794434H123.513L126.758 13.0244H126.814L129.633 0.794434H132.643L128.297 17H125.5L122.232 5.37646H122.165L118.897 17H116.101Z" fill="black"/>
<path d="M134.552 17V0.794434H137.158L145.053 12.1484H145.12V0.794434H147.995V17H145.412L137.495 5.60107H137.438V17H134.552Z" fill="black"/>
</svg>
