<svg width="1006" height="818" viewBox="0 0 1006 818" fill="none" xmlns="http://www.w3.org/2000/svg">
<path d="M1005.27 653.055L996.883 662.965V682.022L1005.27 688.121V734.621H980.874L983.161 739.958L1005.27 752.917V792.557L980.874 778.073L957.243 741.482L962.579 729.285L940.472 720.9V701.843L901.595 658.392V606.555L811.643 544.046L798.684 545.57L777.339 524.226L749.134 474.676L741.511 499.07L728.552 483.824V464.767L688.149 483.824L695.011 515.078L730.839 545.57L741.511 584.448L745.322 585.973H751.421L773.527 600.456L807.069 609.603L802.495 617.227L842.897 638.571L876.438 665.252L870.34 679.735L856.619 662.965H827.651L821.553 684.31L832.225 691.17L833.75 711.752L818.504 718.613L821.553 732.335L808.594 746.818L791.823 748.343L809.355 710.99L791.823 669.826L772.003 661.44L769.716 651.53H753.708L739.224 633.235L717.88 627.137L648.51 568.439L632.502 533.373L608.107 522.701L592.861 516.603L581.428 518.89L579.141 524.226L558.559 535.66L531.878 553.193L528.066 557.005L508.246 560.054L493.763 553.193L460.221 548.619L452.598 545.57L421.344 571.488L422.868 605.792L390.852 627.899L367.982 629.424L351.974 645.432L320.72 696.507L326.818 723.949L303.187 755.966L270.407 773.499L265.071 792.557L194.177 791.032L156.062 817.713L139.291 807.04L137.767 784.171L115.66 773.499L92.791 780.359L56.9629 775.786L70.6836 736.908L44.7656 708.703L55.4385 682.785L63.8232 680.498L74.4951 641.62L87.4551 624.85L82.8809 609.603V585.973L69.1592 558.529L119.472 538.71L145.39 547.095H190.365L258.973 550.145L284.892 557.005L300.138 522.701L306.235 483.824L325.293 495.259L312.334 476.201L304.711 460.192L307.761 445.709L290.989 441.135L281.08 428.176L277.269 415.217H271.17V407.594L262.022 403.02L254.399 399.208H245.252L229.243 393.872H221.62L212.473 384.725L223.145 379.389H210.948L219.333 374.052L210.186 373.29L207.137 366.429L216.284 364.143L239.153 361.093L254.399 355.757L269.646 364.143H300.138L302.424 344.322L294.039 326.789L312.334 331.363L318.433 338.986L344.351 340.511L351.974 336.699V331.363L361.884 320.69L393.139 307.731L394.663 284.862L424.393 278.765L441.163 266.567L467.082 271.142L448.024 263.519L456.409 255.133L470.894 252.846L463.271 248.272L494.524 210.919L512.82 197.96L534.164 191.861L538.738 197.96L545.599 204.059H551.697L545.599 195.673L551.697 185.764H569.993L571.518 195.673L582.189 190.337L583.714 197.96L586.764 183.477H608.107L624.116 190.337L595.911 174.329L586.764 140.787L576.854 113.345V86.664L586.764 88.1885L582.189 78.2783L595.911 67.6064L640.125 52.3603L641.649 69.1308L640.125 78.2783L634.788 89.7129L647.748 94.2871L640.125 105.722L621.829 121.729V133.927L634.788 121.729H644.698L647.748 139.263L640.125 142.312L618.018 139.263L616.493 149.173L634.788 162.895H653.846L649.272 176.615L665.28 178.141L715.593 160.607L723.978 162.895L719.404 172.042L730.076 178.141L736.175 185.764L744.561 188.05L752.184 185.764L737.699 179.665L803.258 167.468L800.208 160.607L849.758 147.648L857.381 160.607L883.3 165.181L904.644 159.083L897.021 151.46V143.837L925.226 146.123L931.324 133.927V124.779L920.652 111.819L919.128 85.1396L927.513 74.4668V66.082L933.611 54.6474L954.193 48.5488L975.538 67.6064L985.448 75.9912L1004.51 69.1308V54.6474L999.932 48.5488L1004.51 38.6386L1002.98 31.0156L993.071 34.0644L977.062 21.8681H1004.51L1005.27 653.055ZM778.858 765.876L785.719 781.885L777.333 794.081L723.21 765.876L704.914 762.827L702.628 743.77L730.833 739.195L765.898 743.77L794.104 735.384L778.858 765.876ZM622.586 659.916L614.2 701.08H602.004L596.667 708.703L576.085 707.179L581.421 675.924L572.273 649.243V641.621L585.995 643.907L605.053 627.899L622.586 659.916ZM424.387 698.031L403.805 686.597L424.387 677.449L433.534 675.924L424.387 698.031ZM613.438 596.645L604.29 617.989L592.855 613.415L584.471 592.833L589.044 582.161L602.766 579.874L610.389 566.915L613.438 596.645ZM258.973 53.122H313.858L287.178 98.0986L276.506 104.959L303.187 112.582L319.195 133.164L328.343 151.46L348.925 165.943L358.835 193.387L335.966 183.477L339.015 209.395L366.458 217.018L383.99 209.395L400.762 237.6L366.458 263.519L390.852 272.666L371.794 290.199L308.522 287.149L323.769 297.06L265.071 290.199L243.727 307.731L223.145 304.683L207.137 314.593H191.128L233.055 278.765L265.071 272.666L287.178 255.133L243.727 266.567L216.284 255.133L210.948 244.461L236.866 232.264V220.829L223.145 217.018L236.866 197.96L271.932 201.771V190.337L276.506 175.091L265.071 169.755L258.973 161.369L271.932 145.361H258.973L236.866 151.46L220.096 145.361L233.055 130.115L231.53 120.205L236.866 108.77L219.333 112.582L211.71 130.115L198.751 117.156L226.956 82.8525L201.038 95.8115L191.891 85.1396L210.948 70.6553L192.652 63.0322L217.046 45.499H229.243L236.866 21.8681H287.178L258.973 53.122ZM210.182 163.656L187.312 181.952L190.361 211.682L172.828 241.411L149.959 242.936L129.377 253.608L85.9258 261.231L65.3438 242.936L83.6387 233.788L115.656 222.353L80.5898 224.641L92.7871 211.682L120.229 206.346L94.3115 204.821L79.8271 196.436L94.3115 170.518H112.606L135.476 159.845L123.278 152.984L155.296 134.689H191.124L210.182 163.656ZM694.242 109.533L685.856 127.065L695.767 137.738L685.856 157.558L659.938 155.271L652.315 147.648L685.856 143.074L659.938 131.64L652.315 117.918L669.086 105.722L694.242 109.533ZM781.738 0.0478285C781.743 0.0471733 785.601 -0.450726 789.738 1.78123C793.879 4.01466 795.238 8.06345 795.238 8.06345L803.252 27.2041L805.539 46.2617L797.916 60.7451V75.9912L788.006 99.623L749.128 108.008L739.98 114.106L742.268 127.065L716.349 131.64L698.816 127.065L707.964 117.918L695.767 99.623L701.865 85.9013L669.086 37.1142L674.423 30.2529H665.274L662.226 21.8681L674.423 5.39158L673.738 4.28123C673.736 4.27717 672.74 2.77872 673.738 1.28123C674.733 -0.210476 677.4 0.045102 677.428 0.0478285H781.738ZM858.138 63.0322L843.653 75.9912L840.604 56.9336L866.522 37.1142L858.138 63.0322ZM511.738 0.0478285L525.738 0.281227L581.738 0.0478285C581.739 0.0477971 583.707 -0.00657231 584.473 0.993141C585.459 2.28135 584.473 4.05564 584.473 4.05564L581.355 8.06345L595.905 21.8681L566.938 42.4502L537.97 37.1142L543.307 30.2529L512.814 21.8681L507.738 4.28123C507.738 4.28123 507.005 2.78106 508.238 1.28123C509.472 -0.218668 511.738 0.0478285 511.738 0.0478285ZM960.292 31.0156L941.234 42.4502L936.66 26.4414L954.193 21.8681H967.915L960.292 31.0156Z" fill="#E4E4E4"/>
</svg>
